M48
; DRILL file {KiCad 8.0.6} date 2024-11-13T16:18:59-0800
; FORMAT={-:-/ absolute / metric / decimal}
; #@! TF.CreationDate,2024-11-13T16:18:59-08:00
; #@! TF.GenerationSoftware,Kicad,Pcbnew,8.0.6
; #@! TF.FileFunction,Plated,1,2,PTH
FMAT,2
METRIC
; #@! TA.AperFunction,Plated,PTH,ViaDrill
T1C0.300
; #@! TA.AperFunction,Plated,PTH,ComponentDrill
T2C0.800
; #@! TA.AperFunction,Plated,PTH,ComponentDrill
T3C1.000
%
G90
G05
T1
X123.698Y-103.886
X123.698Y-105.156
X123.698Y-106.426
X123.698Y-107.696
X123.698Y-108.966
X123.698Y-110.236
X123.698Y-111.506
X123.698Y-112.776
X123.698Y-114.046
X124.333Y-122.428
X124.333Y-123.571
X124.333Y-124.841
X124.333Y-126.238
X124.333Y-127.508
X124.333Y-128.905
X124.333Y-130.048
X124.333Y-131.318
X124.333Y-132.715
X124.333Y-133.985
X125.222Y-103.886
X125.222Y-105.156
X125.222Y-106.426
X125.222Y-107.696
X125.222Y-108.966
X125.222Y-110.236
X125.222Y-111.506
X125.222Y-112.776
X125.222Y-114.046
X125.857Y-122.428
X125.857Y-123.571
X125.857Y-124.841
X125.857Y-126.238
X125.857Y-127.508
X125.857Y-128.905
X125.857Y-130.048
X125.857Y-131.318
X125.857Y-132.715
X125.857Y-133.985
X127.889Y-122.428
X127.889Y-123.571
X127.889Y-124.841
X127.889Y-126.238
X127.889Y-127.508
X127.889Y-128.905
X127.889Y-130.048
X127.889Y-131.318
X127.889Y-132.715
X127.889Y-133.985
X129.159Y-122.428
X129.159Y-123.571
X129.159Y-124.841
X129.159Y-126.238
X129.159Y-127.508
X129.159Y-128.905
X129.159Y-130.048
X129.159Y-131.318
X129.159Y-132.715
X129.159Y-133.985
X131.699Y-112.649
X131.699Y-113.792
X133.223Y-112.649
X133.223Y-113.792
X134.112Y-104.624
X135.763Y-104.624
X135.763Y-113.03
X135.763Y-113.919
X137.033Y-105.537
X137.033Y-106.807
X137.033Y-108.077
X137.033Y-109.347
X139.192Y-105.664
X141.986Y-107.188
X141.986Y-108.458
X141.986Y-109.728
X143.51Y-107.188
X143.51Y-108.458
X143.51Y-109.728
X143.51Y-110.998
X143.51Y-117.602
X143.51Y-118.745
X143.51Y-120.015
X143.51Y-121.412
X143.51Y-122.682
X143.51Y-124.714
X143.51Y-125.984
X143.51Y-127.381
X145.034Y-107.188
X145.034Y-108.458
X145.034Y-109.728
X145.034Y-110.998
X145.034Y-112.268
X145.034Y-113.538
X145.034Y-114.808
X145.034Y-116.078
X145.034Y-117.602
X145.034Y-118.745
X145.034Y-120.015
X145.034Y-121.412
X145.034Y-122.682
X146.812Y-125.984
X146.812Y-127.254
X146.812Y-128.651
X146.812Y-133.731
X146.812Y-135.001
X146.812Y-136.271
X147.066Y-107.188
X147.066Y-108.458
X147.066Y-109.728
X147.066Y-110.998
X147.066Y-112.268
X147.066Y-113.538
X147.066Y-114.808
X147.066Y-116.078
X147.066Y-117.602
X147.066Y-118.745
X147.066Y-120.015
X147.066Y-121.412
X147.066Y-122.682
X148.336Y-107.188
X148.336Y-108.458
X148.336Y-109.728
X148.336Y-110.998
X148.336Y-112.268
X148.336Y-113.538
X148.336Y-114.808
X148.336Y-116.078
X148.336Y-117.602
X148.336Y-118.745
X148.336Y-120.015
X148.336Y-121.412
X148.336Y-122.682
X148.336Y-125.984
X148.336Y-127.254
X148.336Y-128.651
X148.336Y-133.731
X148.336Y-135.001
X148.336Y-136.271
T2
X126.912Y-104.481
X126.952Y-111.506
X129.412Y-104.481
X129.452Y-111.506
X144.185Y-130.556
X146.685Y-130.556
T3
X133.477Y-135.382
X136.017Y-135.382
X138.557Y-135.382
M30
