G04 #@! TF.GenerationSoftware,KiCad,Pcbnew,8.0.6*
G04 #@! TF.CreationDate,2024-11-13T16:27:34-08:00*
G04 #@! TF.ProjectId,snes_switching_regulator,736e6573-5f73-4776-9974-6368696e675f,A*
G04 #@! TF.SameCoordinates,Original*
G04 #@! TF.FileFunction,Copper,L2,Bot*
G04 #@! TF.FilePolarity,Positive*
%FSLAX46Y46*%
G04 Gerber Fmt 4.6, Leading zero omitted, Abs format (unit mm)*
G04 Created by KiCad (PCBNEW 8.0.6) date 2024-11-13 16:27:34*
%MOMM*%
%LPD*%
G01*
G04 APERTURE LIST*
G04 #@! TA.AperFunction,ComponentPad*
%ADD10R,1.600000X1.600000*%
G04 #@! TD*
G04 #@! TA.AperFunction,ComponentPad*
%ADD11C,1.600000*%
G04 #@! TD*
G04 #@! TA.AperFunction,ComponentPad*
%ADD12O,1.700000X1.700000*%
G04 #@! TD*
G04 #@! TA.AperFunction,ComponentPad*
%ADD13R,1.700000X1.700000*%
G04 #@! TD*
G04 #@! TA.AperFunction,ViaPad*
%ADD14C,0.600000*%
G04 #@! TD*
G04 #@! TA.AperFunction,Conductor*
%ADD15C,0.800000*%
G04 #@! TD*
G04 APERTURE END LIST*
D10*
X129412380Y-104481000D03*
D11*
X126912380Y-104481000D03*
D10*
X129452380Y-111506000D03*
D11*
X126952380Y-111506000D03*
D10*
X144185000Y-130556000D03*
D11*
X146685000Y-130556000D03*
D12*
X138557000Y-135382000D03*
X136017000Y-135382000D03*
D13*
X133477000Y-135382000D03*
D14*
X127889000Y-133985000D03*
X143510000Y-125984000D03*
X125857000Y-133985000D03*
X131699000Y-113792000D03*
X148336000Y-108458000D03*
X145034000Y-113538000D03*
X124333000Y-126238000D03*
X148336000Y-116078000D03*
X148336000Y-109728000D03*
X148336000Y-118745000D03*
X145034000Y-107188000D03*
X137033000Y-105537000D03*
X146812000Y-127254000D03*
X148336000Y-107188000D03*
X146812000Y-133731000D03*
X148336000Y-120015000D03*
X127889000Y-130048000D03*
X129159000Y-131318000D03*
X146812000Y-136271000D03*
X123698000Y-106426000D03*
X145034000Y-117602000D03*
X127889000Y-127508000D03*
X145034000Y-122682000D03*
X148336000Y-133731000D03*
X125222000Y-108966000D03*
X145034000Y-120015000D03*
X129159000Y-132715000D03*
X143510000Y-117602000D03*
X123698000Y-107696000D03*
X148336000Y-128651000D03*
X148336000Y-135001000D03*
X125857000Y-127508000D03*
X123698000Y-105156000D03*
X123698000Y-114046000D03*
X127889000Y-128905000D03*
X135763000Y-113919000D03*
X148336000Y-121412000D03*
X145034000Y-121412000D03*
X143510000Y-110998000D03*
X145034000Y-108458000D03*
X124333000Y-131318000D03*
X129159000Y-124841000D03*
X125222000Y-103886000D03*
X129159000Y-127508000D03*
X123698000Y-108966000D03*
X147066000Y-109728000D03*
X148336000Y-136271000D03*
X125222000Y-110236000D03*
X147066000Y-112268000D03*
X147066000Y-122682000D03*
X129159000Y-123571000D03*
X125222000Y-107696000D03*
X129159000Y-128905000D03*
X147066000Y-107188000D03*
X148336000Y-127254000D03*
X127889000Y-122428000D03*
X133223000Y-113792000D03*
X143510000Y-107188000D03*
X125222000Y-105156000D03*
X124333000Y-130048000D03*
X147066000Y-121412000D03*
X125857000Y-122428000D03*
X125222000Y-112776000D03*
X146812000Y-128651000D03*
X129159000Y-122428000D03*
X124333000Y-133985000D03*
X123698000Y-112776000D03*
X124333000Y-123571000D03*
X147066000Y-120015000D03*
X147066000Y-118745000D03*
X143510000Y-121412000D03*
X137033000Y-108077000D03*
X145034000Y-118745000D03*
X146812000Y-135001000D03*
X143510000Y-108458000D03*
X127889000Y-124841000D03*
X125857000Y-131318000D03*
X143510000Y-120015000D03*
X127889000Y-131318000D03*
X124333000Y-132715000D03*
X145034000Y-114808000D03*
X148336000Y-122682000D03*
X125857000Y-124841000D03*
X125857000Y-130048000D03*
X145034000Y-116078000D03*
X137033000Y-109347000D03*
X134112000Y-104624500D03*
X127889000Y-123571000D03*
X137033000Y-106807000D03*
X148336000Y-125984000D03*
X145034000Y-109728000D03*
X141986000Y-108458000D03*
X147066000Y-117602000D03*
X141986000Y-109728000D03*
X143510000Y-124714000D03*
X147066000Y-116078000D03*
X125222000Y-111506000D03*
X135763000Y-104624500D03*
X135763000Y-113030000D03*
X147066000Y-113538000D03*
X148336000Y-117602000D03*
X124333000Y-122428000D03*
X133223000Y-112649000D03*
X127889000Y-126238000D03*
X131699000Y-112649000D03*
X127889000Y-132715000D03*
X145034000Y-112268000D03*
X129159000Y-130048000D03*
X124333000Y-124841000D03*
X125857000Y-126238000D03*
X148336000Y-110998000D03*
X123698000Y-103886000D03*
X148336000Y-113538000D03*
X125222000Y-106426000D03*
X143510000Y-122682000D03*
X147066000Y-108458000D03*
X129159000Y-126238000D03*
X146812000Y-125984000D03*
X125222000Y-114046000D03*
X124333000Y-128905000D03*
X148336000Y-112268000D03*
X143510000Y-118745000D03*
X125857000Y-132715000D03*
X125857000Y-128905000D03*
X147066000Y-114808000D03*
X123698000Y-111506000D03*
X143510000Y-109728000D03*
X145034000Y-110998000D03*
X148336000Y-114808000D03*
X123698000Y-110236000D03*
X143510000Y-127381000D03*
X147066000Y-110998000D03*
X141986000Y-107188000D03*
X124333000Y-127508000D03*
X129159000Y-133985000D03*
X125857000Y-123571000D03*
X139192000Y-105664000D03*
D15*
X144185000Y-130556000D02*
X145542000Y-129199000D01*
X145542000Y-129199000D02*
X145542000Y-125476000D01*
X145542000Y-125476000D02*
X146050000Y-124968000D01*
X146050000Y-124968000D02*
X146050000Y-105918000D01*
X146050000Y-105918000D02*
X145923000Y-105791000D01*
X145923000Y-105791000D02*
X139319000Y-105791000D01*
X139319000Y-105791000D02*
X139192000Y-105664000D01*
G04 #@! TA.AperFunction,Conductor*
G36*
X148710148Y-100971852D02*
G01*
X148724500Y-101006500D01*
X148724500Y-136737500D01*
X148710148Y-136772148D01*
X148675500Y-136786500D01*
X123358500Y-136786500D01*
X123323852Y-136772148D01*
X123309500Y-136737500D01*
X123309500Y-134512252D01*
X132426500Y-134512252D01*
X132426500Y-136251748D01*
X132438133Y-136310231D01*
X132455882Y-136336795D01*
X132482447Y-136376552D01*
X132509012Y-136394301D01*
X132548769Y-136420867D01*
X132607252Y-136432500D01*
X132607255Y-136432500D01*
X134346745Y-136432500D01*
X134346748Y-136432500D01*
X134405231Y-136420867D01*
X134471552Y-136376552D01*
X134515867Y-136310231D01*
X134527500Y-136251748D01*
X134527500Y-135382000D01*
X137501417Y-135382000D01*
X137521700Y-135587934D01*
X137581768Y-135785954D01*
X137679315Y-135968450D01*
X137810590Y-136128410D01*
X137970550Y-136259685D01*
X138153046Y-136357232D01*
X138351066Y-136417300D01*
X138557000Y-136437583D01*
X138762934Y-136417300D01*
X138960954Y-136357232D01*
X139143450Y-136259685D01*
X139303410Y-136128410D01*
X139434685Y-135968450D01*
X139532232Y-135785954D01*
X139592300Y-135587934D01*
X139612583Y-135382000D01*
X139592300Y-135176066D01*
X139532232Y-134978046D01*
X139434685Y-134795550D01*
X139303410Y-134635590D01*
X139143450Y-134504315D01*
X138960954Y-134406768D01*
X138762934Y-134346700D01*
X138557000Y-134326417D01*
X138351065Y-134346700D01*
X138351064Y-134346700D01*
X138153043Y-134406769D01*
X137970548Y-134504316D01*
X137810590Y-134635590D01*
X137679316Y-134795548D01*
X137581769Y-134978043D01*
X137521700Y-135176064D01*
X137521700Y-135176065D01*
X137521700Y-135176066D01*
X137501417Y-135382000D01*
X134527500Y-135382000D01*
X134527500Y-134512252D01*
X134515867Y-134453769D01*
X134484462Y-134406769D01*
X134471552Y-134387447D01*
X134410569Y-134346700D01*
X134405231Y-134343133D01*
X134346748Y-134331500D01*
X132607252Y-134331500D01*
X132548769Y-134343133D01*
X132482447Y-134387447D01*
X132438133Y-134453769D01*
X132426500Y-134512252D01*
X123309500Y-134512252D01*
X123309500Y-110686252D01*
X128451880Y-110686252D01*
X128451880Y-112325748D01*
X128463513Y-112384231D01*
X128481262Y-112410795D01*
X128507827Y-112450552D01*
X128534392Y-112468301D01*
X128574149Y-112494867D01*
X128632632Y-112506500D01*
X128632635Y-112506500D01*
X130272125Y-112506500D01*
X130272128Y-112506500D01*
X130330611Y-112494867D01*
X130396932Y-112450552D01*
X130441247Y-112384231D01*
X130452880Y-112325748D01*
X130452880Y-110686252D01*
X130441247Y-110627769D01*
X130414681Y-110588012D01*
X130396932Y-110561447D01*
X130357175Y-110534882D01*
X130330611Y-110517133D01*
X130272128Y-110505500D01*
X128632632Y-110505500D01*
X128574149Y-110517133D01*
X128507827Y-110561447D01*
X128463513Y-110627769D01*
X128451880Y-110686252D01*
X123309500Y-110686252D01*
X123309500Y-105584940D01*
X138591499Y-105584940D01*
X138591499Y-105743059D01*
X138632421Y-105895781D01*
X138632423Y-105895787D01*
X138711481Y-106032716D01*
X138836764Y-106157999D01*
X138836769Y-106158005D01*
X138838480Y-106159716D01*
X138950284Y-106271520D01*
X138950287Y-106271521D01*
X138950290Y-106271524D01*
X139037090Y-106321637D01*
X139037093Y-106321638D01*
X139037095Y-106321639D01*
X139087215Y-106350577D01*
X139207667Y-106382851D01*
X139239939Y-106391499D01*
X139239940Y-106391500D01*
X139239943Y-106391500D01*
X139398057Y-106391500D01*
X145400500Y-106391500D01*
X145435148Y-106405852D01*
X145449500Y-106440500D01*
X145449500Y-124698968D01*
X145435148Y-124733616D01*
X145061481Y-125107283D01*
X145061480Y-125107283D01*
X145011360Y-125194095D01*
X144982423Y-125244212D01*
X144982421Y-125244218D01*
X144941499Y-125396940D01*
X144941499Y-125559000D01*
X144941500Y-125559013D01*
X144941500Y-128929967D01*
X144927148Y-128964615D01*
X144768370Y-129123392D01*
X144753510Y-129133571D01*
X143807122Y-129551327D01*
X143787334Y-129555500D01*
X143365252Y-129555500D01*
X143306769Y-129567133D01*
X143240447Y-129611447D01*
X143196133Y-129677769D01*
X143184500Y-129736252D01*
X143184500Y-131375748D01*
X143196133Y-131434231D01*
X143213882Y-131460795D01*
X143240447Y-131500552D01*
X143267012Y-131518301D01*
X143306769Y-131544867D01*
X143365252Y-131556500D01*
X143365255Y-131556500D01*
X145004745Y-131556500D01*
X145004748Y-131556500D01*
X145063231Y-131544867D01*
X145129552Y-131500552D01*
X145173867Y-131434231D01*
X145185500Y-131375748D01*
X145185500Y-130961699D01*
X145191805Y-130937655D01*
X145883631Y-129709158D01*
X145891671Y-129698563D01*
X146022520Y-129567716D01*
X146101577Y-129430785D01*
X146122039Y-129354421D01*
X146142501Y-129278059D01*
X146142501Y-129116946D01*
X146142500Y-129116928D01*
X146142500Y-125745030D01*
X146156851Y-125710383D01*
X146414681Y-125452552D01*
X146414686Y-125452549D01*
X146418714Y-125448520D01*
X146418716Y-125448520D01*
X146530520Y-125336716D01*
X146609577Y-125199784D01*
X146650499Y-125047060D01*
X146650500Y-125047060D01*
X146650500Y-105838941D01*
X146637199Y-105789305D01*
X146637199Y-105789304D01*
X146609577Y-105686216D01*
X146609577Y-105686215D01*
X146580639Y-105636095D01*
X146530520Y-105549284D01*
X146418716Y-105437480D01*
X146417010Y-105435774D01*
X146416999Y-105435764D01*
X146406315Y-105425080D01*
X146406313Y-105425077D01*
X146291718Y-105310482D01*
X146291716Y-105310480D01*
X146291713Y-105310478D01*
X146291709Y-105310475D01*
X146201697Y-105258508D01*
X146154787Y-105231423D01*
X146154781Y-105231421D01*
X146002060Y-105190499D01*
X146002057Y-105190499D01*
X145843943Y-105190499D01*
X145840946Y-105190499D01*
X145840930Y-105190500D01*
X139586002Y-105190500D01*
X139561502Y-105183935D01*
X139423787Y-105104423D01*
X139423781Y-105104421D01*
X139271060Y-105063499D01*
X139271057Y-105063499D01*
X139112943Y-105063499D01*
X139112940Y-105063499D01*
X138960218Y-105104421D01*
X138960212Y-105104423D01*
X138823283Y-105183481D01*
X138823283Y-105183482D01*
X138711482Y-105295283D01*
X138711481Y-105295283D01*
X138632423Y-105432212D01*
X138632421Y-105432218D01*
X138591499Y-105584940D01*
X123309500Y-105584940D01*
X123309500Y-103661252D01*
X128411880Y-103661252D01*
X128411880Y-105300748D01*
X128423513Y-105359231D01*
X128441262Y-105385795D01*
X128467827Y-105425552D01*
X128477804Y-105432218D01*
X128534149Y-105469867D01*
X128592632Y-105481500D01*
X128592635Y-105481500D01*
X130232125Y-105481500D01*
X130232128Y-105481500D01*
X130290611Y-105469867D01*
X130356932Y-105425552D01*
X130401247Y-105359231D01*
X130412880Y-105300748D01*
X130412880Y-103661252D01*
X130401247Y-103602769D01*
X130374681Y-103563012D01*
X130356932Y-103536447D01*
X130317175Y-103509882D01*
X130290611Y-103492133D01*
X130232128Y-103480500D01*
X128592632Y-103480500D01*
X128534149Y-103492133D01*
X128467827Y-103536447D01*
X128423513Y-103602769D01*
X128411880Y-103661252D01*
X123309500Y-103661252D01*
X123309500Y-101006500D01*
X123323852Y-100971852D01*
X123358500Y-100957500D01*
X148675500Y-100957500D01*
X148710148Y-100971852D01*
G37*
G04 #@! TD.AperFunction*
G04 #@! TA.AperFunction,Conductor*
G36*
X145930256Y-129190143D02*
G01*
X145933683Y-129198416D01*
X145932178Y-129204157D01*
X144990076Y-130877074D01*
X144983030Y-130882601D01*
X144975430Y-130882153D01*
X144189491Y-130558847D01*
X144183144Y-130552531D01*
X144183137Y-130552515D01*
X143856723Y-129766567D01*
X143856715Y-129757615D01*
X143862802Y-129751379D01*
X145115495Y-129198416D01*
X145139744Y-129187712D01*
X145144469Y-129186716D01*
X145921983Y-129186716D01*
X145930256Y-129190143D01*
G37*
G04 #@! TD.AperFunction*
M02*
