%TF.GenerationSoftware,KiCad,Pcbnew,8.0.6*%
%TF.CreationDate,2024-11-13T16:18:59-08:00*%
%TF.ProjectId,snes_switching_regulator,736e6573-5f73-4776-9974-6368696e675f,A*%
%TF.SameCoordinates,Original*%
%TF.FileFunction,Drillmap*%
%TF.FilePolarity,Positive*%
%FSLAX45Y45*%
G04 Gerber Fmt 4.5, Leading zero omitted, Abs format (unit mm)*
G04 Created by KiCad (PCBNEW 8.0.6) date 2024-11-13 16:18:59*
%MOMM*%
%LPD*%
G01*
G04 APERTURE LIST*
%ADD10C,0.050000*%
%ADD11C,0.200000*%
G04 APERTURE END LIST*
D10*
X12280900Y-10045700D02*
X14922500Y-10045700D01*
X14922500Y-13728700D01*
X12280900Y-13728700D01*
X12280900Y-10045700D01*
D11*
X12539177Y-14042684D02*
X12539177Y-13842684D01*
X12539177Y-13842684D02*
X12586796Y-13842684D01*
X12586796Y-13842684D02*
X12615367Y-13852208D01*
X12615367Y-13852208D02*
X12634415Y-13871255D01*
X12634415Y-13871255D02*
X12643939Y-13890303D01*
X12643939Y-13890303D02*
X12653462Y-13928398D01*
X12653462Y-13928398D02*
X12653462Y-13956969D01*
X12653462Y-13956969D02*
X12643939Y-13995065D01*
X12643939Y-13995065D02*
X12634415Y-14014112D01*
X12634415Y-14014112D02*
X12615367Y-14033160D01*
X12615367Y-14033160D02*
X12586796Y-14042684D01*
X12586796Y-14042684D02*
X12539177Y-14042684D01*
X12739177Y-14042684D02*
X12739177Y-13909350D01*
X12739177Y-13947446D02*
X12748701Y-13928398D01*
X12748701Y-13928398D02*
X12758224Y-13918874D01*
X12758224Y-13918874D02*
X12777272Y-13909350D01*
X12777272Y-13909350D02*
X12796320Y-13909350D01*
X12862986Y-14042684D02*
X12862986Y-13909350D01*
X12862986Y-13842684D02*
X12853462Y-13852208D01*
X12853462Y-13852208D02*
X12862986Y-13861731D01*
X12862986Y-13861731D02*
X12872510Y-13852208D01*
X12872510Y-13852208D02*
X12862986Y-13842684D01*
X12862986Y-13842684D02*
X12862986Y-13861731D01*
X12986796Y-14042684D02*
X12967748Y-14033160D01*
X12967748Y-14033160D02*
X12958224Y-14014112D01*
X12958224Y-14014112D02*
X12958224Y-13842684D01*
X13091558Y-14042684D02*
X13072510Y-14033160D01*
X13072510Y-14033160D02*
X13062986Y-14014112D01*
X13062986Y-14014112D02*
X13062986Y-13842684D01*
X13320129Y-14042684D02*
X13320129Y-13842684D01*
X13320129Y-13842684D02*
X13386796Y-13985541D01*
X13386796Y-13985541D02*
X13453462Y-13842684D01*
X13453462Y-13842684D02*
X13453462Y-14042684D01*
X13634415Y-14042684D02*
X13634415Y-13937922D01*
X13634415Y-13937922D02*
X13624891Y-13918874D01*
X13624891Y-13918874D02*
X13605843Y-13909350D01*
X13605843Y-13909350D02*
X13567748Y-13909350D01*
X13567748Y-13909350D02*
X13548701Y-13918874D01*
X13634415Y-14033160D02*
X13615367Y-14042684D01*
X13615367Y-14042684D02*
X13567748Y-14042684D01*
X13567748Y-14042684D02*
X13548701Y-14033160D01*
X13548701Y-14033160D02*
X13539177Y-14014112D01*
X13539177Y-14014112D02*
X13539177Y-13995065D01*
X13539177Y-13995065D02*
X13548701Y-13976017D01*
X13548701Y-13976017D02*
X13567748Y-13966493D01*
X13567748Y-13966493D02*
X13615367Y-13966493D01*
X13615367Y-13966493D02*
X13634415Y-13956969D01*
X13729653Y-13909350D02*
X13729653Y-14109350D01*
X13729653Y-13918874D02*
X13748701Y-13909350D01*
X13748701Y-13909350D02*
X13786796Y-13909350D01*
X13786796Y-13909350D02*
X13805843Y-13918874D01*
X13805843Y-13918874D02*
X13815367Y-13928398D01*
X13815367Y-13928398D02*
X13824891Y-13947446D01*
X13824891Y-13947446D02*
X13824891Y-14004588D01*
X13824891Y-14004588D02*
X13815367Y-14023636D01*
X13815367Y-14023636D02*
X13805843Y-14033160D01*
X13805843Y-14033160D02*
X13786796Y-14042684D01*
X13786796Y-14042684D02*
X13748701Y-14042684D01*
X13748701Y-14042684D02*
X13729653Y-14033160D01*
X13910605Y-14023636D02*
X13920129Y-14033160D01*
X13920129Y-14033160D02*
X13910605Y-14042684D01*
X13910605Y-14042684D02*
X13901082Y-14033160D01*
X13901082Y-14033160D02*
X13910605Y-14023636D01*
X13910605Y-14023636D02*
X13910605Y-14042684D01*
X13910605Y-13918874D02*
X13920129Y-13928398D01*
X13920129Y-13928398D02*
X13910605Y-13937922D01*
X13910605Y-13937922D02*
X13901082Y-13928398D01*
X13901082Y-13928398D02*
X13910605Y-13918874D01*
X13910605Y-13918874D02*
X13910605Y-13937922D01*
M02*
