G04 #@! TF.GenerationSoftware,KiCad,Pcbnew,8.0.6*
G04 #@! TF.CreationDate,2024-11-13T16:27:34-08:00*
G04 #@! TF.ProjectId,snes_switching_regulator,736e6573-5f73-4776-9974-6368696e675f,A*
G04 #@! TF.SameCoordinates,Original*
G04 #@! TF.FileFunction,Legend,Bot*
G04 #@! TF.FilePolarity,Positive*
%FSLAX46Y46*%
G04 Gerber Fmt 4.6, Leading zero omitted, Abs format (unit mm)*
G04 Created by KiCad (PCBNEW 8.0.6) date 2024-11-13 16:27:34*
%MOMM*%
%LPD*%
G01*
G04 APERTURE LIST*
%ADD10C,0.160000*%
%ADD11R,1.600000X1.600000*%
%ADD12C,1.600000*%
%ADD13O,1.700000X1.700000*%
%ADD14R,1.700000X1.700000*%
G04 APERTURE END LIST*
D10*
X145246260Y-116063904D02*
X145103403Y-116111523D01*
X145103403Y-116111523D02*
X144865308Y-116111523D01*
X144865308Y-116111523D02*
X144770070Y-116063904D01*
X144770070Y-116063904D02*
X144722451Y-116016284D01*
X144722451Y-116016284D02*
X144674832Y-115921046D01*
X144674832Y-115921046D02*
X144674832Y-115825808D01*
X144674832Y-115825808D02*
X144722451Y-115730570D01*
X144722451Y-115730570D02*
X144770070Y-115682951D01*
X144770070Y-115682951D02*
X144865308Y-115635332D01*
X144865308Y-115635332D02*
X145055784Y-115587713D01*
X145055784Y-115587713D02*
X145151022Y-115540094D01*
X145151022Y-115540094D02*
X145198641Y-115492475D01*
X145198641Y-115492475D02*
X145246260Y-115397237D01*
X145246260Y-115397237D02*
X145246260Y-115301999D01*
X145246260Y-115301999D02*
X145198641Y-115206761D01*
X145198641Y-115206761D02*
X145151022Y-115159142D01*
X145151022Y-115159142D02*
X145055784Y-115111523D01*
X145055784Y-115111523D02*
X144817689Y-115111523D01*
X144817689Y-115111523D02*
X144674832Y-115159142D01*
X144246260Y-116111523D02*
X144246260Y-115111523D01*
X144246260Y-115111523D02*
X143674832Y-116111523D01*
X143674832Y-116111523D02*
X143674832Y-115111523D01*
X143198641Y-115587713D02*
X142865308Y-115587713D01*
X142722451Y-116111523D02*
X143198641Y-116111523D01*
X143198641Y-116111523D02*
X143198641Y-115111523D01*
X143198641Y-115111523D02*
X142722451Y-115111523D01*
X142341498Y-116063904D02*
X142198641Y-116111523D01*
X142198641Y-116111523D02*
X141960546Y-116111523D01*
X141960546Y-116111523D02*
X141865308Y-116063904D01*
X141865308Y-116063904D02*
X141817689Y-116016284D01*
X141817689Y-116016284D02*
X141770070Y-115921046D01*
X141770070Y-115921046D02*
X141770070Y-115825808D01*
X141770070Y-115825808D02*
X141817689Y-115730570D01*
X141817689Y-115730570D02*
X141865308Y-115682951D01*
X141865308Y-115682951D02*
X141960546Y-115635332D01*
X141960546Y-115635332D02*
X142151022Y-115587713D01*
X142151022Y-115587713D02*
X142246260Y-115540094D01*
X142246260Y-115540094D02*
X142293879Y-115492475D01*
X142293879Y-115492475D02*
X142341498Y-115397237D01*
X142341498Y-115397237D02*
X142341498Y-115301999D01*
X142341498Y-115301999D02*
X142293879Y-115206761D01*
X142293879Y-115206761D02*
X142246260Y-115159142D01*
X142246260Y-115159142D02*
X142151022Y-115111523D01*
X142151022Y-115111523D02*
X141912927Y-115111523D01*
X141912927Y-115111523D02*
X141770070Y-115159142D01*
X140627212Y-116063904D02*
X140484355Y-116111523D01*
X140484355Y-116111523D02*
X140246260Y-116111523D01*
X140246260Y-116111523D02*
X140151022Y-116063904D01*
X140151022Y-116063904D02*
X140103403Y-116016284D01*
X140103403Y-116016284D02*
X140055784Y-115921046D01*
X140055784Y-115921046D02*
X140055784Y-115825808D01*
X140055784Y-115825808D02*
X140103403Y-115730570D01*
X140103403Y-115730570D02*
X140151022Y-115682951D01*
X140151022Y-115682951D02*
X140246260Y-115635332D01*
X140246260Y-115635332D02*
X140436736Y-115587713D01*
X140436736Y-115587713D02*
X140531974Y-115540094D01*
X140531974Y-115540094D02*
X140579593Y-115492475D01*
X140579593Y-115492475D02*
X140627212Y-115397237D01*
X140627212Y-115397237D02*
X140627212Y-115301999D01*
X140627212Y-115301999D02*
X140579593Y-115206761D01*
X140579593Y-115206761D02*
X140531974Y-115159142D01*
X140531974Y-115159142D02*
X140436736Y-115111523D01*
X140436736Y-115111523D02*
X140198641Y-115111523D01*
X140198641Y-115111523D02*
X140055784Y-115159142D01*
X139722450Y-115444856D02*
X139531974Y-116111523D01*
X139531974Y-116111523D02*
X139341498Y-115635332D01*
X139341498Y-115635332D02*
X139151022Y-116111523D01*
X139151022Y-116111523D02*
X138960546Y-115444856D01*
X138579593Y-116111523D02*
X138579593Y-115444856D01*
X138579593Y-115111523D02*
X138627212Y-115159142D01*
X138627212Y-115159142D02*
X138579593Y-115206761D01*
X138579593Y-115206761D02*
X138531974Y-115159142D01*
X138531974Y-115159142D02*
X138579593Y-115111523D01*
X138579593Y-115111523D02*
X138579593Y-115206761D01*
X138246260Y-115444856D02*
X137865308Y-115444856D01*
X138103403Y-115111523D02*
X138103403Y-115968665D01*
X138103403Y-115968665D02*
X138055784Y-116063904D01*
X138055784Y-116063904D02*
X137960546Y-116111523D01*
X137960546Y-116111523D02*
X137865308Y-116111523D01*
X137103403Y-116063904D02*
X137198641Y-116111523D01*
X137198641Y-116111523D02*
X137389117Y-116111523D01*
X137389117Y-116111523D02*
X137484355Y-116063904D01*
X137484355Y-116063904D02*
X137531974Y-116016284D01*
X137531974Y-116016284D02*
X137579593Y-115921046D01*
X137579593Y-115921046D02*
X137579593Y-115635332D01*
X137579593Y-115635332D02*
X137531974Y-115540094D01*
X137531974Y-115540094D02*
X137484355Y-115492475D01*
X137484355Y-115492475D02*
X137389117Y-115444856D01*
X137389117Y-115444856D02*
X137198641Y-115444856D01*
X137198641Y-115444856D02*
X137103403Y-115492475D01*
X136674831Y-116111523D02*
X136674831Y-115111523D01*
X136246260Y-116111523D02*
X136246260Y-115587713D01*
X136246260Y-115587713D02*
X136293879Y-115492475D01*
X136293879Y-115492475D02*
X136389117Y-115444856D01*
X136389117Y-115444856D02*
X136531974Y-115444856D01*
X136531974Y-115444856D02*
X136627212Y-115492475D01*
X136627212Y-115492475D02*
X136674831Y-115540094D01*
X135770069Y-116111523D02*
X135770069Y-115444856D01*
X135770069Y-115111523D02*
X135817688Y-115159142D01*
X135817688Y-115159142D02*
X135770069Y-115206761D01*
X135770069Y-115206761D02*
X135722450Y-115159142D01*
X135722450Y-115159142D02*
X135770069Y-115111523D01*
X135770069Y-115111523D02*
X135770069Y-115206761D01*
X135293879Y-115444856D02*
X135293879Y-116111523D01*
X135293879Y-115540094D02*
X135246260Y-115492475D01*
X135246260Y-115492475D02*
X135151022Y-115444856D01*
X135151022Y-115444856D02*
X135008165Y-115444856D01*
X135008165Y-115444856D02*
X134912927Y-115492475D01*
X134912927Y-115492475D02*
X134865308Y-115587713D01*
X134865308Y-115587713D02*
X134865308Y-116111523D01*
X133960546Y-115444856D02*
X133960546Y-116254380D01*
X133960546Y-116254380D02*
X134008165Y-116349618D01*
X134008165Y-116349618D02*
X134055784Y-116397237D01*
X134055784Y-116397237D02*
X134151022Y-116444856D01*
X134151022Y-116444856D02*
X134293879Y-116444856D01*
X134293879Y-116444856D02*
X134389117Y-116397237D01*
X133960546Y-116063904D02*
X134055784Y-116111523D01*
X134055784Y-116111523D02*
X134246260Y-116111523D01*
X134246260Y-116111523D02*
X134341498Y-116063904D01*
X134341498Y-116063904D02*
X134389117Y-116016284D01*
X134389117Y-116016284D02*
X134436736Y-115921046D01*
X134436736Y-115921046D02*
X134436736Y-115635332D01*
X134436736Y-115635332D02*
X134389117Y-115540094D01*
X134389117Y-115540094D02*
X134341498Y-115492475D01*
X134341498Y-115492475D02*
X134246260Y-115444856D01*
X134246260Y-115444856D02*
X134055784Y-115444856D01*
X134055784Y-115444856D02*
X133960546Y-115492475D01*
X132151022Y-116111523D02*
X132484355Y-115635332D01*
X132722450Y-116111523D02*
X132722450Y-115111523D01*
X132722450Y-115111523D02*
X132341498Y-115111523D01*
X132341498Y-115111523D02*
X132246260Y-115159142D01*
X132246260Y-115159142D02*
X132198641Y-115206761D01*
X132198641Y-115206761D02*
X132151022Y-115301999D01*
X132151022Y-115301999D02*
X132151022Y-115444856D01*
X132151022Y-115444856D02*
X132198641Y-115540094D01*
X132198641Y-115540094D02*
X132246260Y-115587713D01*
X132246260Y-115587713D02*
X132341498Y-115635332D01*
X132341498Y-115635332D02*
X132722450Y-115635332D01*
X131341498Y-116063904D02*
X131436736Y-116111523D01*
X131436736Y-116111523D02*
X131627212Y-116111523D01*
X131627212Y-116111523D02*
X131722450Y-116063904D01*
X131722450Y-116063904D02*
X131770069Y-115968665D01*
X131770069Y-115968665D02*
X131770069Y-115587713D01*
X131770069Y-115587713D02*
X131722450Y-115492475D01*
X131722450Y-115492475D02*
X131627212Y-115444856D01*
X131627212Y-115444856D02*
X131436736Y-115444856D01*
X131436736Y-115444856D02*
X131341498Y-115492475D01*
X131341498Y-115492475D02*
X131293879Y-115587713D01*
X131293879Y-115587713D02*
X131293879Y-115682951D01*
X131293879Y-115682951D02*
X131770069Y-115778189D01*
X130436736Y-115444856D02*
X130436736Y-116254380D01*
X130436736Y-116254380D02*
X130484355Y-116349618D01*
X130484355Y-116349618D02*
X130531974Y-116397237D01*
X130531974Y-116397237D02*
X130627212Y-116444856D01*
X130627212Y-116444856D02*
X130770069Y-116444856D01*
X130770069Y-116444856D02*
X130865307Y-116397237D01*
X130436736Y-116063904D02*
X130531974Y-116111523D01*
X130531974Y-116111523D02*
X130722450Y-116111523D01*
X130722450Y-116111523D02*
X130817688Y-116063904D01*
X130817688Y-116063904D02*
X130865307Y-116016284D01*
X130865307Y-116016284D02*
X130912926Y-115921046D01*
X130912926Y-115921046D02*
X130912926Y-115635332D01*
X130912926Y-115635332D02*
X130865307Y-115540094D01*
X130865307Y-115540094D02*
X130817688Y-115492475D01*
X130817688Y-115492475D02*
X130722450Y-115444856D01*
X130722450Y-115444856D02*
X130531974Y-115444856D01*
X130531974Y-115444856D02*
X130436736Y-115492475D01*
X129531974Y-115444856D02*
X129531974Y-116111523D01*
X129960545Y-115444856D02*
X129960545Y-115968665D01*
X129960545Y-115968665D02*
X129912926Y-116063904D01*
X129912926Y-116063904D02*
X129817688Y-116111523D01*
X129817688Y-116111523D02*
X129674831Y-116111523D01*
X129674831Y-116111523D02*
X129579593Y-116063904D01*
X129579593Y-116063904D02*
X129531974Y-116016284D01*
X128912926Y-116111523D02*
X129008164Y-116063904D01*
X129008164Y-116063904D02*
X129055783Y-115968665D01*
X129055783Y-115968665D02*
X129055783Y-115111523D01*
X128103402Y-116111523D02*
X128103402Y-115587713D01*
X128103402Y-115587713D02*
X128151021Y-115492475D01*
X128151021Y-115492475D02*
X128246259Y-115444856D01*
X128246259Y-115444856D02*
X128436735Y-115444856D01*
X128436735Y-115444856D02*
X128531973Y-115492475D01*
X128103402Y-116063904D02*
X128198640Y-116111523D01*
X128198640Y-116111523D02*
X128436735Y-116111523D01*
X128436735Y-116111523D02*
X128531973Y-116063904D01*
X128531973Y-116063904D02*
X128579592Y-115968665D01*
X128579592Y-115968665D02*
X128579592Y-115873427D01*
X128579592Y-115873427D02*
X128531973Y-115778189D01*
X128531973Y-115778189D02*
X128436735Y-115730570D01*
X128436735Y-115730570D02*
X128198640Y-115730570D01*
X128198640Y-115730570D02*
X128103402Y-115682951D01*
X127770068Y-115444856D02*
X127389116Y-115444856D01*
X127627211Y-115111523D02*
X127627211Y-115968665D01*
X127627211Y-115968665D02*
X127579592Y-116063904D01*
X127579592Y-116063904D02*
X127484354Y-116111523D01*
X127484354Y-116111523D02*
X127389116Y-116111523D01*
X126912925Y-116111523D02*
X127008163Y-116063904D01*
X127008163Y-116063904D02*
X127055782Y-116016284D01*
X127055782Y-116016284D02*
X127103401Y-115921046D01*
X127103401Y-115921046D02*
X127103401Y-115635332D01*
X127103401Y-115635332D02*
X127055782Y-115540094D01*
X127055782Y-115540094D02*
X127008163Y-115492475D01*
X127008163Y-115492475D02*
X126912925Y-115444856D01*
X126912925Y-115444856D02*
X126770068Y-115444856D01*
X126770068Y-115444856D02*
X126674830Y-115492475D01*
X126674830Y-115492475D02*
X126627211Y-115540094D01*
X126627211Y-115540094D02*
X126579592Y-115635332D01*
X126579592Y-115635332D02*
X126579592Y-115921046D01*
X126579592Y-115921046D02*
X126627211Y-116016284D01*
X126627211Y-116016284D02*
X126674830Y-116063904D01*
X126674830Y-116063904D02*
X126770068Y-116111523D01*
X126770068Y-116111523D02*
X126912925Y-116111523D01*
X126151020Y-116111523D02*
X126151020Y-115444856D01*
X126151020Y-115635332D02*
X126103401Y-115540094D01*
X126103401Y-115540094D02*
X126055782Y-115492475D01*
X126055782Y-115492475D02*
X125960544Y-115444856D01*
X125960544Y-115444856D02*
X125865306Y-115444856D01*
X144627213Y-117721467D02*
X144960546Y-117245276D01*
X145198641Y-117721467D02*
X145198641Y-116721467D01*
X145198641Y-116721467D02*
X144817689Y-116721467D01*
X144817689Y-116721467D02*
X144722451Y-116769086D01*
X144722451Y-116769086D02*
X144674832Y-116816705D01*
X144674832Y-116816705D02*
X144627213Y-116911943D01*
X144627213Y-116911943D02*
X144627213Y-117054800D01*
X144627213Y-117054800D02*
X144674832Y-117150038D01*
X144674832Y-117150038D02*
X144722451Y-117197657D01*
X144722451Y-117197657D02*
X144817689Y-117245276D01*
X144817689Y-117245276D02*
X145198641Y-117245276D01*
X143817689Y-117673848D02*
X143912927Y-117721467D01*
X143912927Y-117721467D02*
X144103403Y-117721467D01*
X144103403Y-117721467D02*
X144198641Y-117673848D01*
X144198641Y-117673848D02*
X144246260Y-117578609D01*
X144246260Y-117578609D02*
X144246260Y-117197657D01*
X144246260Y-117197657D02*
X144198641Y-117102419D01*
X144198641Y-117102419D02*
X144103403Y-117054800D01*
X144103403Y-117054800D02*
X143912927Y-117054800D01*
X143912927Y-117054800D02*
X143817689Y-117102419D01*
X143817689Y-117102419D02*
X143770070Y-117197657D01*
X143770070Y-117197657D02*
X143770070Y-117292895D01*
X143770070Y-117292895D02*
X144246260Y-117388133D01*
X143436736Y-117054800D02*
X143198641Y-117721467D01*
X143198641Y-117721467D02*
X142960546Y-117054800D01*
X142579593Y-117626228D02*
X142531974Y-117673848D01*
X142531974Y-117673848D02*
X142579593Y-117721467D01*
X142579593Y-117721467D02*
X142627212Y-117673848D01*
X142627212Y-117673848D02*
X142579593Y-117626228D01*
X142579593Y-117626228D02*
X142579593Y-117721467D01*
X142579593Y-117102419D02*
X142531974Y-117150038D01*
X142531974Y-117150038D02*
X142579593Y-117197657D01*
X142579593Y-117197657D02*
X142627212Y-117150038D01*
X142627212Y-117150038D02*
X142579593Y-117102419D01*
X142579593Y-117102419D02*
X142579593Y-117197657D01*
X141389117Y-117435752D02*
X140912927Y-117435752D01*
X141484355Y-117721467D02*
X141151022Y-116721467D01*
X141151022Y-116721467D02*
X140817689Y-117721467D01*
X145198641Y-119331411D02*
X145198641Y-118331411D01*
X145198641Y-118331411D02*
X144960546Y-118331411D01*
X144960546Y-118331411D02*
X144817689Y-118379030D01*
X144817689Y-118379030D02*
X144722451Y-118474268D01*
X144722451Y-118474268D02*
X144674832Y-118569506D01*
X144674832Y-118569506D02*
X144627213Y-118759982D01*
X144627213Y-118759982D02*
X144627213Y-118902839D01*
X144627213Y-118902839D02*
X144674832Y-119093315D01*
X144674832Y-119093315D02*
X144722451Y-119188553D01*
X144722451Y-119188553D02*
X144817689Y-119283792D01*
X144817689Y-119283792D02*
X144960546Y-119331411D01*
X144960546Y-119331411D02*
X145198641Y-119331411D01*
X143770070Y-119331411D02*
X143770070Y-118807601D01*
X143770070Y-118807601D02*
X143817689Y-118712363D01*
X143817689Y-118712363D02*
X143912927Y-118664744D01*
X143912927Y-118664744D02*
X144103403Y-118664744D01*
X144103403Y-118664744D02*
X144198641Y-118712363D01*
X143770070Y-119283792D02*
X143865308Y-119331411D01*
X143865308Y-119331411D02*
X144103403Y-119331411D01*
X144103403Y-119331411D02*
X144198641Y-119283792D01*
X144198641Y-119283792D02*
X144246260Y-119188553D01*
X144246260Y-119188553D02*
X144246260Y-119093315D01*
X144246260Y-119093315D02*
X144198641Y-118998077D01*
X144198641Y-118998077D02*
X144103403Y-118950458D01*
X144103403Y-118950458D02*
X143865308Y-118950458D01*
X143865308Y-118950458D02*
X143770070Y-118902839D01*
X143436736Y-118664744D02*
X143055784Y-118664744D01*
X143293879Y-118331411D02*
X143293879Y-119188553D01*
X143293879Y-119188553D02*
X143246260Y-119283792D01*
X143246260Y-119283792D02*
X143151022Y-119331411D01*
X143151022Y-119331411D02*
X143055784Y-119331411D01*
X142341498Y-119283792D02*
X142436736Y-119331411D01*
X142436736Y-119331411D02*
X142627212Y-119331411D01*
X142627212Y-119331411D02*
X142722450Y-119283792D01*
X142722450Y-119283792D02*
X142770069Y-119188553D01*
X142770069Y-119188553D02*
X142770069Y-118807601D01*
X142770069Y-118807601D02*
X142722450Y-118712363D01*
X142722450Y-118712363D02*
X142627212Y-118664744D01*
X142627212Y-118664744D02*
X142436736Y-118664744D01*
X142436736Y-118664744D02*
X142341498Y-118712363D01*
X142341498Y-118712363D02*
X142293879Y-118807601D01*
X142293879Y-118807601D02*
X142293879Y-118902839D01*
X142293879Y-118902839D02*
X142770069Y-118998077D01*
X141865307Y-119236172D02*
X141817688Y-119283792D01*
X141817688Y-119283792D02*
X141865307Y-119331411D01*
X141865307Y-119331411D02*
X141912926Y-119283792D01*
X141912926Y-119283792D02*
X141865307Y-119236172D01*
X141865307Y-119236172D02*
X141865307Y-119331411D01*
X141865307Y-118712363D02*
X141817688Y-118759982D01*
X141817688Y-118759982D02*
X141865307Y-118807601D01*
X141865307Y-118807601D02*
X141912926Y-118759982D01*
X141912926Y-118759982D02*
X141865307Y-118712363D01*
X141865307Y-118712363D02*
X141865307Y-118807601D01*
X140674831Y-118426649D02*
X140627212Y-118379030D01*
X140627212Y-118379030D02*
X140531974Y-118331411D01*
X140531974Y-118331411D02*
X140293879Y-118331411D01*
X140293879Y-118331411D02*
X140198641Y-118379030D01*
X140198641Y-118379030D02*
X140151022Y-118426649D01*
X140151022Y-118426649D02*
X140103403Y-118521887D01*
X140103403Y-118521887D02*
X140103403Y-118617125D01*
X140103403Y-118617125D02*
X140151022Y-118759982D01*
X140151022Y-118759982D02*
X140722450Y-119331411D01*
X140722450Y-119331411D02*
X140103403Y-119331411D01*
X139484355Y-118331411D02*
X139389117Y-118331411D01*
X139389117Y-118331411D02*
X139293879Y-118379030D01*
X139293879Y-118379030D02*
X139246260Y-118426649D01*
X139246260Y-118426649D02*
X139198641Y-118521887D01*
X139198641Y-118521887D02*
X139151022Y-118712363D01*
X139151022Y-118712363D02*
X139151022Y-118950458D01*
X139151022Y-118950458D02*
X139198641Y-119140934D01*
X139198641Y-119140934D02*
X139246260Y-119236172D01*
X139246260Y-119236172D02*
X139293879Y-119283792D01*
X139293879Y-119283792D02*
X139389117Y-119331411D01*
X139389117Y-119331411D02*
X139484355Y-119331411D01*
X139484355Y-119331411D02*
X139579593Y-119283792D01*
X139579593Y-119283792D02*
X139627212Y-119236172D01*
X139627212Y-119236172D02*
X139674831Y-119140934D01*
X139674831Y-119140934D02*
X139722450Y-118950458D01*
X139722450Y-118950458D02*
X139722450Y-118712363D01*
X139722450Y-118712363D02*
X139674831Y-118521887D01*
X139674831Y-118521887D02*
X139627212Y-118426649D01*
X139627212Y-118426649D02*
X139579593Y-118379030D01*
X139579593Y-118379030D02*
X139484355Y-118331411D01*
X138770069Y-118426649D02*
X138722450Y-118379030D01*
X138722450Y-118379030D02*
X138627212Y-118331411D01*
X138627212Y-118331411D02*
X138389117Y-118331411D01*
X138389117Y-118331411D02*
X138293879Y-118379030D01*
X138293879Y-118379030D02*
X138246260Y-118426649D01*
X138246260Y-118426649D02*
X138198641Y-118521887D01*
X138198641Y-118521887D02*
X138198641Y-118617125D01*
X138198641Y-118617125D02*
X138246260Y-118759982D01*
X138246260Y-118759982D02*
X138817688Y-119331411D01*
X138817688Y-119331411D02*
X138198641Y-119331411D01*
X137341498Y-118664744D02*
X137341498Y-119331411D01*
X137579593Y-118283792D02*
X137817688Y-118998077D01*
X137817688Y-118998077D02*
X137198641Y-118998077D01*
X136817688Y-118950458D02*
X136055784Y-118950458D01*
X135389117Y-118331411D02*
X135293879Y-118331411D01*
X135293879Y-118331411D02*
X135198641Y-118379030D01*
X135198641Y-118379030D02*
X135151022Y-118426649D01*
X135151022Y-118426649D02*
X135103403Y-118521887D01*
X135103403Y-118521887D02*
X135055784Y-118712363D01*
X135055784Y-118712363D02*
X135055784Y-118950458D01*
X135055784Y-118950458D02*
X135103403Y-119140934D01*
X135103403Y-119140934D02*
X135151022Y-119236172D01*
X135151022Y-119236172D02*
X135198641Y-119283792D01*
X135198641Y-119283792D02*
X135293879Y-119331411D01*
X135293879Y-119331411D02*
X135389117Y-119331411D01*
X135389117Y-119331411D02*
X135484355Y-119283792D01*
X135484355Y-119283792D02*
X135531974Y-119236172D01*
X135531974Y-119236172D02*
X135579593Y-119140934D01*
X135579593Y-119140934D02*
X135627212Y-118950458D01*
X135627212Y-118950458D02*
X135627212Y-118712363D01*
X135627212Y-118712363D02*
X135579593Y-118521887D01*
X135579593Y-118521887D02*
X135531974Y-118426649D01*
X135531974Y-118426649D02*
X135484355Y-118379030D01*
X135484355Y-118379030D02*
X135389117Y-118331411D01*
X134722450Y-118331411D02*
X134055784Y-118331411D01*
X134055784Y-118331411D02*
X134484355Y-119331411D01*
X133674831Y-118950458D02*
X132912927Y-118950458D01*
X132484355Y-118426649D02*
X132436736Y-118379030D01*
X132436736Y-118379030D02*
X132341498Y-118331411D01*
X132341498Y-118331411D02*
X132103403Y-118331411D01*
X132103403Y-118331411D02*
X132008165Y-118379030D01*
X132008165Y-118379030D02*
X131960546Y-118426649D01*
X131960546Y-118426649D02*
X131912927Y-118521887D01*
X131912927Y-118521887D02*
X131912927Y-118617125D01*
X131912927Y-118617125D02*
X131960546Y-118759982D01*
X131960546Y-118759982D02*
X132531974Y-119331411D01*
X132531974Y-119331411D02*
X131912927Y-119331411D01*
X130960546Y-119331411D02*
X131531974Y-119331411D01*
X131246260Y-119331411D02*
X131246260Y-118331411D01*
X131246260Y-118331411D02*
X131341498Y-118474268D01*
X131341498Y-118474268D02*
X131436736Y-118569506D01*
X131436736Y-118569506D02*
X131531974Y-118617125D01*
X145246260Y-120655640D02*
X144770070Y-120655640D01*
X145341498Y-120941355D02*
X145008165Y-119941355D01*
X145008165Y-119941355D02*
X144674832Y-120941355D01*
X143912927Y-120274688D02*
X143912927Y-120941355D01*
X144341498Y-120274688D02*
X144341498Y-120798497D01*
X144341498Y-120798497D02*
X144293879Y-120893736D01*
X144293879Y-120893736D02*
X144198641Y-120941355D01*
X144198641Y-120941355D02*
X144055784Y-120941355D01*
X144055784Y-120941355D02*
X143960546Y-120893736D01*
X143960546Y-120893736D02*
X143912927Y-120846116D01*
X143579593Y-120274688D02*
X143198641Y-120274688D01*
X143436736Y-119941355D02*
X143436736Y-120798497D01*
X143436736Y-120798497D02*
X143389117Y-120893736D01*
X143389117Y-120893736D02*
X143293879Y-120941355D01*
X143293879Y-120941355D02*
X143198641Y-120941355D01*
X142865307Y-120941355D02*
X142865307Y-119941355D01*
X142436736Y-120941355D02*
X142436736Y-120417545D01*
X142436736Y-120417545D02*
X142484355Y-120322307D01*
X142484355Y-120322307D02*
X142579593Y-120274688D01*
X142579593Y-120274688D02*
X142722450Y-120274688D01*
X142722450Y-120274688D02*
X142817688Y-120322307D01*
X142817688Y-120322307D02*
X142865307Y-120369926D01*
X141817688Y-120941355D02*
X141912926Y-120893736D01*
X141912926Y-120893736D02*
X141960545Y-120846116D01*
X141960545Y-120846116D02*
X142008164Y-120750878D01*
X142008164Y-120750878D02*
X142008164Y-120465164D01*
X142008164Y-120465164D02*
X141960545Y-120369926D01*
X141960545Y-120369926D02*
X141912926Y-120322307D01*
X141912926Y-120322307D02*
X141817688Y-120274688D01*
X141817688Y-120274688D02*
X141674831Y-120274688D01*
X141674831Y-120274688D02*
X141579593Y-120322307D01*
X141579593Y-120322307D02*
X141531974Y-120369926D01*
X141531974Y-120369926D02*
X141484355Y-120465164D01*
X141484355Y-120465164D02*
X141484355Y-120750878D01*
X141484355Y-120750878D02*
X141531974Y-120846116D01*
X141531974Y-120846116D02*
X141579593Y-120893736D01*
X141579593Y-120893736D02*
X141674831Y-120941355D01*
X141674831Y-120941355D02*
X141817688Y-120941355D01*
X141055783Y-120941355D02*
X141055783Y-120274688D01*
X141055783Y-120465164D02*
X141008164Y-120369926D01*
X141008164Y-120369926D02*
X140960545Y-120322307D01*
X140960545Y-120322307D02*
X140865307Y-120274688D01*
X140865307Y-120274688D02*
X140770069Y-120274688D01*
X140436735Y-120846116D02*
X140389116Y-120893736D01*
X140389116Y-120893736D02*
X140436735Y-120941355D01*
X140436735Y-120941355D02*
X140484354Y-120893736D01*
X140484354Y-120893736D02*
X140436735Y-120846116D01*
X140436735Y-120846116D02*
X140436735Y-120941355D01*
X140436735Y-120322307D02*
X140389116Y-120369926D01*
X140389116Y-120369926D02*
X140436735Y-120417545D01*
X140436735Y-120417545D02*
X140484354Y-120369926D01*
X140484354Y-120369926D02*
X140436735Y-120322307D01*
X140436735Y-120322307D02*
X140436735Y-120417545D01*
X138674831Y-119988974D02*
X138770069Y-119941355D01*
X138770069Y-119941355D02*
X138912926Y-119941355D01*
X138912926Y-119941355D02*
X139055783Y-119988974D01*
X139055783Y-119988974D02*
X139151021Y-120084212D01*
X139151021Y-120084212D02*
X139198640Y-120179450D01*
X139198640Y-120179450D02*
X139246259Y-120369926D01*
X139246259Y-120369926D02*
X139246259Y-120512783D01*
X139246259Y-120512783D02*
X139198640Y-120703259D01*
X139198640Y-120703259D02*
X139151021Y-120798497D01*
X139151021Y-120798497D02*
X139055783Y-120893736D01*
X139055783Y-120893736D02*
X138912926Y-120941355D01*
X138912926Y-120941355D02*
X138817688Y-120941355D01*
X138817688Y-120941355D02*
X138674831Y-120893736D01*
X138674831Y-120893736D02*
X138627212Y-120846116D01*
X138627212Y-120846116D02*
X138627212Y-120512783D01*
X138627212Y-120512783D02*
X138817688Y-120512783D01*
X137770069Y-120941355D02*
X137770069Y-120417545D01*
X137770069Y-120417545D02*
X137817688Y-120322307D01*
X137817688Y-120322307D02*
X137912926Y-120274688D01*
X137912926Y-120274688D02*
X138103402Y-120274688D01*
X138103402Y-120274688D02*
X138198640Y-120322307D01*
X137770069Y-120893736D02*
X137865307Y-120941355D01*
X137865307Y-120941355D02*
X138103402Y-120941355D01*
X138103402Y-120941355D02*
X138198640Y-120893736D01*
X138198640Y-120893736D02*
X138246259Y-120798497D01*
X138246259Y-120798497D02*
X138246259Y-120703259D01*
X138246259Y-120703259D02*
X138198640Y-120608021D01*
X138198640Y-120608021D02*
X138103402Y-120560402D01*
X138103402Y-120560402D02*
X137865307Y-120560402D01*
X137865307Y-120560402D02*
X137770069Y-120512783D01*
X137293878Y-120941355D02*
X137293878Y-119941355D01*
X137293878Y-120322307D02*
X137198640Y-120274688D01*
X137198640Y-120274688D02*
X137008164Y-120274688D01*
X137008164Y-120274688D02*
X136912926Y-120322307D01*
X136912926Y-120322307D02*
X136865307Y-120369926D01*
X136865307Y-120369926D02*
X136817688Y-120465164D01*
X136817688Y-120465164D02*
X136817688Y-120750878D01*
X136817688Y-120750878D02*
X136865307Y-120846116D01*
X136865307Y-120846116D02*
X136912926Y-120893736D01*
X136912926Y-120893736D02*
X137008164Y-120941355D01*
X137008164Y-120941355D02*
X137198640Y-120941355D01*
X137198640Y-120941355D02*
X137293878Y-120893736D01*
X136389116Y-120941355D02*
X136389116Y-120274688D01*
X136389116Y-120465164D02*
X136341497Y-120369926D01*
X136341497Y-120369926D02*
X136293878Y-120322307D01*
X136293878Y-120322307D02*
X136198640Y-120274688D01*
X136198640Y-120274688D02*
X136103402Y-120274688D01*
X135770068Y-120941355D02*
X135770068Y-120274688D01*
X135770068Y-119941355D02*
X135817687Y-119988974D01*
X135817687Y-119988974D02*
X135770068Y-120036593D01*
X135770068Y-120036593D02*
X135722449Y-119988974D01*
X135722449Y-119988974D02*
X135770068Y-119941355D01*
X135770068Y-119941355D02*
X135770068Y-120036593D01*
X134912926Y-120893736D02*
X135008164Y-120941355D01*
X135008164Y-120941355D02*
X135198640Y-120941355D01*
X135198640Y-120941355D02*
X135293878Y-120893736D01*
X135293878Y-120893736D02*
X135341497Y-120798497D01*
X135341497Y-120798497D02*
X135341497Y-120417545D01*
X135341497Y-120417545D02*
X135293878Y-120322307D01*
X135293878Y-120322307D02*
X135198640Y-120274688D01*
X135198640Y-120274688D02*
X135008164Y-120274688D01*
X135008164Y-120274688D02*
X134912926Y-120322307D01*
X134912926Y-120322307D02*
X134865307Y-120417545D01*
X134865307Y-120417545D02*
X134865307Y-120512783D01*
X134865307Y-120512783D02*
X135341497Y-120608021D01*
X134293878Y-120941355D02*
X134389116Y-120893736D01*
X134389116Y-120893736D02*
X134436735Y-120798497D01*
X134436735Y-120798497D02*
X134436735Y-119941355D01*
X133151020Y-120941355D02*
X133151020Y-119941355D01*
X133151020Y-119941355D02*
X132817687Y-120655640D01*
X132817687Y-120655640D02*
X132484354Y-119941355D01*
X132484354Y-119941355D02*
X132484354Y-120941355D01*
X131579592Y-120941355D02*
X131579592Y-120417545D01*
X131579592Y-120417545D02*
X131627211Y-120322307D01*
X131627211Y-120322307D02*
X131722449Y-120274688D01*
X131722449Y-120274688D02*
X131912925Y-120274688D01*
X131912925Y-120274688D02*
X132008163Y-120322307D01*
X131579592Y-120893736D02*
X131674830Y-120941355D01*
X131674830Y-120941355D02*
X131912925Y-120941355D01*
X131912925Y-120941355D02*
X132008163Y-120893736D01*
X132008163Y-120893736D02*
X132055782Y-120798497D01*
X132055782Y-120798497D02*
X132055782Y-120703259D01*
X132055782Y-120703259D02*
X132008163Y-120608021D01*
X132008163Y-120608021D02*
X131912925Y-120560402D01*
X131912925Y-120560402D02*
X131674830Y-120560402D01*
X131674830Y-120560402D02*
X131579592Y-120512783D01*
X131103401Y-120941355D02*
X131103401Y-120274688D01*
X131103401Y-120465164D02*
X131055782Y-120369926D01*
X131055782Y-120369926D02*
X131008163Y-120322307D01*
X131008163Y-120322307D02*
X130912925Y-120274688D01*
X130912925Y-120274688D02*
X130817687Y-120274688D01*
X130055782Y-120893736D02*
X130151020Y-120941355D01*
X130151020Y-120941355D02*
X130341496Y-120941355D01*
X130341496Y-120941355D02*
X130436734Y-120893736D01*
X130436734Y-120893736D02*
X130484353Y-120846116D01*
X130484353Y-120846116D02*
X130531972Y-120750878D01*
X130531972Y-120750878D02*
X130531972Y-120465164D01*
X130531972Y-120465164D02*
X130484353Y-120369926D01*
X130484353Y-120369926D02*
X130436734Y-120322307D01*
X130436734Y-120322307D02*
X130341496Y-120274688D01*
X130341496Y-120274688D02*
X130151020Y-120274688D01*
X130151020Y-120274688D02*
X130055782Y-120322307D01*
X129198639Y-120941355D02*
X129198639Y-120417545D01*
X129198639Y-120417545D02*
X129246258Y-120322307D01*
X129246258Y-120322307D02*
X129341496Y-120274688D01*
X129341496Y-120274688D02*
X129531972Y-120274688D01*
X129531972Y-120274688D02*
X129627210Y-120322307D01*
X129198639Y-120893736D02*
X129293877Y-120941355D01*
X129293877Y-120941355D02*
X129531972Y-120941355D01*
X129531972Y-120941355D02*
X129627210Y-120893736D01*
X129627210Y-120893736D02*
X129674829Y-120798497D01*
X129674829Y-120798497D02*
X129674829Y-120703259D01*
X129674829Y-120703259D02*
X129627210Y-120608021D01*
X129627210Y-120608021D02*
X129531972Y-120560402D01*
X129531972Y-120560402D02*
X129293877Y-120560402D01*
X129293877Y-120560402D02*
X129198639Y-120512783D01*
X128722448Y-120274688D02*
X128722448Y-120941355D01*
X128722448Y-120369926D02*
X128674829Y-120322307D01*
X128674829Y-120322307D02*
X128579591Y-120274688D01*
X128579591Y-120274688D02*
X128436734Y-120274688D01*
X128436734Y-120274688D02*
X128341496Y-120322307D01*
X128341496Y-120322307D02*
X128293877Y-120417545D01*
X128293877Y-120417545D02*
X128293877Y-120941355D01*
X127674829Y-120941355D02*
X127770067Y-120893736D01*
X127770067Y-120893736D02*
X127817686Y-120846116D01*
X127817686Y-120846116D02*
X127865305Y-120750878D01*
X127865305Y-120750878D02*
X127865305Y-120465164D01*
X127865305Y-120465164D02*
X127817686Y-120369926D01*
X127817686Y-120369926D02*
X127770067Y-120322307D01*
X127770067Y-120322307D02*
X127674829Y-120274688D01*
X127674829Y-120274688D02*
X127531972Y-120274688D01*
X127531972Y-120274688D02*
X127436734Y-120322307D01*
X127436734Y-120322307D02*
X127389115Y-120369926D01*
X127389115Y-120369926D02*
X127341496Y-120465164D01*
X127341496Y-120465164D02*
X127341496Y-120750878D01*
X127341496Y-120750878D02*
X127389115Y-120846116D01*
X127389115Y-120846116D02*
X127436734Y-120893736D01*
X127436734Y-120893736D02*
X127531972Y-120941355D01*
X127531972Y-120941355D02*
X127674829Y-120941355D01*
%LPC*%
D11*
X129412380Y-104481000D03*
D12*
X126912380Y-104481000D03*
D11*
X129452380Y-111506000D03*
D12*
X126952380Y-111506000D03*
D11*
X144185000Y-130556000D03*
D12*
X146685000Y-130556000D03*
D13*
X138557000Y-135382000D03*
X136017000Y-135382000D03*
D14*
X133477000Y-135382000D03*
%LPD*%
M02*
