G04 #@! TF.GenerationSoftware,KiCad,Pcbnew,8.0.6*
G04 #@! TF.CreationDate,2024-11-13T16:27:34-08:00*
G04 #@! TF.ProjectId,snes_switching_regulator,736e6573-5f73-4776-9974-6368696e675f,A*
G04 #@! TF.SameCoordinates,Original*
G04 #@! TF.FileFunction,Copper,L1,Top*
G04 #@! TF.FilePolarity,Positive*
%FSLAX46Y46*%
G04 Gerber Fmt 4.6, Leading zero omitted, Abs format (unit mm)*
G04 Created by KiCad (PCBNEW 8.0.6) date 2024-11-13 16:27:34*
%MOMM*%
%LPD*%
G01*
G04 APERTURE LIST*
G04 Aperture macros list*
%AMRoundRect*
0 Rectangle with rounded corners*
0 $1 Rounding radius*
0 $2 $3 $4 $5 $6 $7 $8 $9 X,Y pos of 4 corners*
0 Add a 4 corners polygon primitive as box body*
4,1,4,$2,$3,$4,$5,$6,$7,$8,$9,$2,$3,0*
0 Add four circle primitives for the rounded corners*
1,1,$1+$1,$2,$3*
1,1,$1+$1,$4,$5*
1,1,$1+$1,$6,$7*
1,1,$1+$1,$8,$9*
0 Add four rect primitives between the rounded corners*
20,1,$1+$1,$2,$3,$4,$5,0*
20,1,$1+$1,$4,$5,$6,$7,0*
20,1,$1+$1,$6,$7,$8,$9,0*
20,1,$1+$1,$8,$9,$2,$3,0*%
G04 Aperture macros list end*
G04 #@! TA.AperFunction,SMDPad,CuDef*
%ADD10RoundRect,0.237500X0.237500X-0.250000X0.237500X0.250000X-0.237500X0.250000X-0.237500X-0.250000X0*%
G04 #@! TD*
G04 #@! TA.AperFunction,ComponentPad*
%ADD11R,1.600000X1.600000*%
G04 #@! TD*
G04 #@! TA.AperFunction,ComponentPad*
%ADD12C,1.600000*%
G04 #@! TD*
G04 #@! TA.AperFunction,SMDPad,CuDef*
%ADD13RoundRect,0.237500X-0.237500X0.300000X-0.237500X-0.300000X0.237500X-0.300000X0.237500X0.300000X0*%
G04 #@! TD*
G04 #@! TA.AperFunction,SMDPad,CuDef*
%ADD14RoundRect,1.125000X-2.875000X1.125000X-2.875000X-1.125000X2.875000X-1.125000X2.875000X1.125000X0*%
G04 #@! TD*
G04 #@! TA.AperFunction,SMDPad,CuDef*
%ADD15RoundRect,0.237500X-0.250000X-0.237500X0.250000X-0.237500X0.250000X0.237500X-0.250000X0.237500X0*%
G04 #@! TD*
G04 #@! TA.AperFunction,SMDPad,CuDef*
%ADD16RoundRect,0.050000X-0.285000X-0.100000X0.285000X-0.100000X0.285000X0.100000X-0.285000X0.100000X0*%
G04 #@! TD*
G04 #@! TA.AperFunction,SMDPad,CuDef*
%ADD17RoundRect,0.237500X-0.300000X-0.237500X0.300000X-0.237500X0.300000X0.237500X-0.300000X0.237500X0*%
G04 #@! TD*
G04 #@! TA.AperFunction,ComponentPad*
%ADD18O,1.700000X1.700000*%
G04 #@! TD*
G04 #@! TA.AperFunction,ComponentPad*
%ADD19R,1.700000X1.700000*%
G04 #@! TD*
G04 #@! TA.AperFunction,ViaPad*
%ADD20C,0.600000*%
G04 #@! TD*
G04 #@! TA.AperFunction,Conductor*
%ADD21C,0.800000*%
G04 #@! TD*
G04 #@! TA.AperFunction,Conductor*
%ADD22C,0.200000*%
G04 #@! TD*
G04 #@! TA.AperFunction,Conductor*
%ADD23C,0.250000*%
G04 #@! TD*
G04 APERTURE END LIST*
D10*
X134112000Y-105744000D03*
X134112000Y-107569000D03*
D11*
X129412380Y-104481000D03*
D12*
X126912380Y-104481000D03*
D13*
X134493000Y-113284000D03*
X134493000Y-111559000D03*
D10*
X139192000Y-107164500D03*
X139192000Y-108989500D03*
D14*
X135763000Y-116924000D03*
X135763000Y-127424000D03*
D10*
X140843000Y-107164500D03*
X140843000Y-108989500D03*
D15*
X141374500Y-112903000D03*
X139549500Y-112903000D03*
D10*
X135763000Y-105744000D03*
X135763000Y-107569000D03*
D16*
X137392000Y-110502000D03*
X137392000Y-111002000D03*
X137392000Y-111502000D03*
X137392000Y-112002000D03*
X135912000Y-112002000D03*
X135912000Y-111502000D03*
X135912000Y-111002000D03*
X135912000Y-110502000D03*
D10*
X132461000Y-105744000D03*
X132461000Y-107569000D03*
D11*
X129452380Y-111506000D03*
D12*
X126952380Y-111506000D03*
D17*
X141578500Y-110871000D03*
X139853500Y-110871000D03*
D13*
X143256000Y-114681000D03*
X143256000Y-112956000D03*
D11*
X144185000Y-130556000D03*
D12*
X146685000Y-130556000D03*
D18*
X138557000Y-135382000D03*
X136017000Y-135382000D03*
D19*
X133477000Y-135382000D03*
D20*
X127889000Y-133985000D03*
X143510000Y-125984000D03*
X125857000Y-133985000D03*
X131699000Y-113792000D03*
X148336000Y-108458000D03*
X145034000Y-113538000D03*
X124333000Y-126238000D03*
X148336000Y-116078000D03*
X148336000Y-109728000D03*
X148336000Y-118745000D03*
X145034000Y-107188000D03*
X137033000Y-105537000D03*
X146812000Y-127254000D03*
X148336000Y-107188000D03*
X146812000Y-133731000D03*
X148336000Y-120015000D03*
X127889000Y-130048000D03*
X129159000Y-131318000D03*
X146812000Y-136271000D03*
X123698000Y-106426000D03*
X145034000Y-117602000D03*
X127889000Y-127508000D03*
X145034000Y-122682000D03*
X148336000Y-133731000D03*
X125222000Y-108966000D03*
X145034000Y-120015000D03*
X129159000Y-132715000D03*
X143510000Y-117602000D03*
X123698000Y-107696000D03*
X148336000Y-128651000D03*
X148336000Y-135001000D03*
X125857000Y-127508000D03*
X123698000Y-105156000D03*
X123698000Y-114046000D03*
X127889000Y-128905000D03*
X135763000Y-113919000D03*
X148336000Y-121412000D03*
X145034000Y-121412000D03*
X143510000Y-110998000D03*
X145034000Y-108458000D03*
X124333000Y-131318000D03*
X129159000Y-124841000D03*
X125222000Y-103886000D03*
X129159000Y-127508000D03*
X123698000Y-108966000D03*
X147066000Y-109728000D03*
X148336000Y-136271000D03*
X125222000Y-110236000D03*
X147066000Y-112268000D03*
X147066000Y-122682000D03*
X129159000Y-123571000D03*
X125222000Y-107696000D03*
X129159000Y-128905000D03*
X147066000Y-107188000D03*
X148336000Y-127254000D03*
X127889000Y-122428000D03*
X133223000Y-113792000D03*
X143510000Y-107188000D03*
X125222000Y-105156000D03*
X124333000Y-130048000D03*
X147066000Y-121412000D03*
X125857000Y-122428000D03*
X125222000Y-112776000D03*
X146812000Y-128651000D03*
X129159000Y-122428000D03*
X124333000Y-133985000D03*
X123698000Y-112776000D03*
X124333000Y-123571000D03*
X147066000Y-120015000D03*
X147066000Y-118745000D03*
X143510000Y-121412000D03*
X137033000Y-108077000D03*
X145034000Y-118745000D03*
X146812000Y-135001000D03*
X143510000Y-108458000D03*
X127889000Y-124841000D03*
X125857000Y-131318000D03*
X143510000Y-120015000D03*
X127889000Y-131318000D03*
X124333000Y-132715000D03*
X145034000Y-114808000D03*
X148336000Y-122682000D03*
X125857000Y-124841000D03*
X125857000Y-130048000D03*
X145034000Y-116078000D03*
X137033000Y-109347000D03*
X134112000Y-104624500D03*
X127889000Y-123571000D03*
X137033000Y-106807000D03*
X148336000Y-125984000D03*
X145034000Y-109728000D03*
X141986000Y-108458000D03*
X147066000Y-117602000D03*
X141986000Y-109728000D03*
X143510000Y-124714000D03*
X147066000Y-116078000D03*
X125222000Y-111506000D03*
X135763000Y-104624500D03*
X135763000Y-113030000D03*
X147066000Y-113538000D03*
X148336000Y-117602000D03*
X124333000Y-122428000D03*
X133223000Y-112649000D03*
X127889000Y-126238000D03*
X131699000Y-112649000D03*
X127889000Y-132715000D03*
X145034000Y-112268000D03*
X129159000Y-130048000D03*
X124333000Y-124841000D03*
X125857000Y-126238000D03*
X148336000Y-110998000D03*
X123698000Y-103886000D03*
X148336000Y-113538000D03*
X125222000Y-106426000D03*
X143510000Y-122682000D03*
X147066000Y-108458000D03*
X129159000Y-126238000D03*
X146812000Y-125984000D03*
X125222000Y-114046000D03*
X124333000Y-128905000D03*
X148336000Y-112268000D03*
X143510000Y-118745000D03*
X125857000Y-132715000D03*
X125857000Y-128905000D03*
X147066000Y-114808000D03*
X123698000Y-111506000D03*
X143510000Y-109728000D03*
X145034000Y-110998000D03*
X148336000Y-114808000D03*
X123698000Y-110236000D03*
X143510000Y-127381000D03*
X147066000Y-110998000D03*
X141986000Y-107188000D03*
X124333000Y-127508000D03*
X129159000Y-133985000D03*
X125857000Y-123571000D03*
X139192000Y-105664000D03*
D21*
X141374500Y-112903000D02*
X143203000Y-112903000D01*
D22*
X143203000Y-112903000D02*
X143256000Y-112956000D01*
X137392000Y-112246000D02*
X137392000Y-112002000D01*
D21*
X137414000Y-114046000D02*
X137457000Y-114046000D01*
X143256000Y-114681000D02*
X141013000Y-116924000D01*
D22*
X137392000Y-115295000D02*
X135763000Y-116924000D01*
D21*
X137457000Y-114046000D02*
X140335000Y-116924000D01*
X141013000Y-116924000D02*
X140335000Y-116924000D01*
X137414000Y-115273000D02*
X135763000Y-116924000D01*
X137414000Y-114046000D02*
X137414000Y-115273000D01*
X140335000Y-116924000D02*
X135763000Y-116924000D01*
X137414000Y-112268000D02*
X137414000Y-114046000D01*
D22*
X137414000Y-112024000D02*
X137392000Y-112002000D01*
X137414000Y-112268000D02*
X137392000Y-112246000D01*
D21*
X135763000Y-104624500D02*
X135763000Y-105744000D01*
X134112000Y-104624500D02*
X134112000Y-105744000D01*
D22*
X138430000Y-110744000D02*
X138172000Y-111002000D01*
X139726500Y-110744000D02*
X139853500Y-110871000D01*
D21*
X138430000Y-110744000D02*
X139726500Y-110744000D01*
D22*
X138172000Y-111002000D02*
X137392000Y-111002000D01*
D21*
X139192000Y-105664000D02*
X139192000Y-107164500D01*
D22*
X137392000Y-110502000D02*
X137392000Y-110258000D01*
X139192000Y-108989500D02*
X140843000Y-108989500D01*
X137392000Y-110258000D02*
X138660500Y-108989500D01*
X138660500Y-108989500D02*
X139192000Y-108989500D01*
X135912000Y-107718000D02*
X135763000Y-107569000D01*
X135912000Y-110502000D02*
X135912000Y-107718000D01*
X134112000Y-107569000D02*
X134112000Y-109601000D01*
X132461000Y-105918000D02*
X134112000Y-107569000D01*
X135513000Y-111002000D02*
X135912000Y-111002000D01*
X132461000Y-105744000D02*
X132461000Y-105918000D01*
X134112000Y-109601000D02*
X135513000Y-111002000D01*
X138172000Y-111502000D02*
X137392000Y-111502000D01*
X138493500Y-111569500D02*
X138684000Y-111760000D01*
D21*
X138684000Y-112522000D02*
X139065000Y-112903000D01*
D22*
X138239500Y-111569500D02*
X138172000Y-111502000D01*
X139065000Y-112903000D02*
X139549500Y-112903000D01*
D21*
X138684000Y-111760000D02*
X138684000Y-112522000D01*
D22*
X138239500Y-111569500D02*
X138493500Y-111569500D01*
D21*
X129413000Y-111545380D02*
X129452380Y-111506000D01*
X132461000Y-107569000D02*
X132461000Y-109527000D01*
X126873000Y-135255000D02*
X126873000Y-118110000D01*
X129452380Y-111506000D02*
X129452380Y-104521000D01*
X132461000Y-109527000D02*
X134493000Y-111559000D01*
X126873000Y-118110000D02*
X129413000Y-115570000D01*
X129452380Y-104521000D02*
X129412380Y-104481000D01*
D23*
X135001000Y-111506000D02*
X135908000Y-111506000D01*
D21*
X129413000Y-115570000D02*
X129413000Y-111545380D01*
X129412380Y-104520380D02*
X132461000Y-107569000D01*
X129412380Y-104481000D02*
X129412380Y-104520380D01*
X133350000Y-135255000D02*
X126873000Y-135255000D01*
X133477000Y-135382000D02*
X133350000Y-135255000D01*
G04 #@! TA.AperFunction,Conductor*
G36*
X140151039Y-124860685D02*
G01*
X140196794Y-124913489D01*
X140208000Y-124965000D01*
X140208000Y-128905000D01*
X145802397Y-128905000D01*
X145869436Y-128924685D01*
X145915191Y-128977489D01*
X145926349Y-129025557D01*
X145937411Y-129423821D01*
X145919596Y-129491381D01*
X145884584Y-129528838D01*
X145845858Y-129555954D01*
X145684954Y-129716858D01*
X145554432Y-129903265D01*
X145554431Y-129903267D01*
X145458261Y-130109502D01*
X145458258Y-130109511D01*
X145399366Y-130329302D01*
X145399364Y-130329313D01*
X145379532Y-130555998D01*
X145379532Y-130556001D01*
X145399364Y-130782686D01*
X145399366Y-130782697D01*
X145458258Y-131002488D01*
X145458261Y-131002497D01*
X145554431Y-131208732D01*
X145554432Y-131208734D01*
X145684954Y-131395141D01*
X145845857Y-131556044D01*
X145845860Y-131556046D01*
X145845861Y-131556047D01*
X145948534Y-131627939D01*
X145992159Y-131682514D01*
X146001363Y-131726070D01*
X146047883Y-133400821D01*
X146030068Y-133468381D01*
X145982990Y-133513296D01*
X139981633Y-136764032D01*
X139922574Y-136779000D01*
X137538000Y-136779000D01*
X137470961Y-136759315D01*
X137425206Y-136706511D01*
X137414000Y-136655000D01*
X137414000Y-134238999D01*
X131499214Y-130211911D01*
X131454877Y-130157911D01*
X131445000Y-130109413D01*
X131445000Y-124965000D01*
X131464685Y-124897961D01*
X131517489Y-124852206D01*
X131569000Y-124841000D01*
X140084000Y-124841000D01*
X140151039Y-124860685D01*
G37*
G04 #@! TD.AperFunction*
G04 #@! TA.AperFunction,Conductor*
G36*
X128991896Y-104314948D02*
G01*
X129058365Y-104336474D01*
X129060912Y-104338260D01*
X131444789Y-106054876D01*
X131487689Y-106110025D01*
X131494406Y-106137629D01*
X131494408Y-106137629D01*
X131494422Y-106137695D01*
X131495686Y-106142889D01*
X131495824Y-106144246D01*
X131495825Y-106144250D01*
X131495826Y-106144253D01*
X131550092Y-106308016D01*
X131640660Y-106454850D01*
X131762650Y-106576840D01*
X131909484Y-106667408D01*
X132073247Y-106721674D01*
X132079863Y-106723090D01*
X132079688Y-106723903D01*
X132114253Y-106733948D01*
X132723731Y-107038947D01*
X132755920Y-107062155D01*
X132840012Y-107146248D01*
X132867774Y-107188666D01*
X133131123Y-107860346D01*
X133139037Y-107893007D01*
X133146826Y-107969253D01*
X133146826Y-107969256D01*
X133165345Y-108025141D01*
X133166867Y-108031069D01*
X133167019Y-108031026D01*
X133168701Y-108036872D01*
X133170553Y-108041529D01*
X133173033Y-108048339D01*
X133201094Y-108133022D01*
X133211824Y-108150418D01*
X133221502Y-108169678D01*
X133221856Y-108170569D01*
X133221860Y-108170578D01*
X133307020Y-108318891D01*
X133495034Y-108646335D01*
X133511500Y-108708079D01*
X133511500Y-109514330D01*
X133511499Y-109514348D01*
X133511499Y-109680054D01*
X133511498Y-109680054D01*
X133511499Y-109680057D01*
X133552423Y-109832785D01*
X133578973Y-109878771D01*
X133631477Y-109969712D01*
X133631481Y-109969717D01*
X133750349Y-110088585D01*
X133750355Y-110088590D01*
X135028139Y-111366374D01*
X135028149Y-111366385D01*
X135032479Y-111370715D01*
X135032480Y-111370716D01*
X135127049Y-111465285D01*
X135160533Y-111526606D01*
X135155549Y-111596298D01*
X135113678Y-111652232D01*
X135048214Y-111676649D01*
X135044654Y-111676852D01*
X129675320Y-111905999D01*
X129433665Y-113058448D01*
X129400641Y-113120021D01*
X129339571Y-113153965D01*
X129312304Y-113157000D01*
X127378000Y-113157000D01*
X127310961Y-113137315D01*
X127265206Y-113084511D01*
X127254000Y-113033000D01*
X127254000Y-112866707D01*
X127273685Y-112799668D01*
X127326489Y-112753913D01*
X127345907Y-112746932D01*
X127363685Y-112742168D01*
X127398876Y-112732739D01*
X127605114Y-112636568D01*
X127791519Y-112506047D01*
X127952427Y-112345139D01*
X128082948Y-112158734D01*
X128179119Y-111952496D01*
X128238015Y-111732692D01*
X128257848Y-111506000D01*
X128238015Y-111279308D01*
X128179119Y-111059504D01*
X128082948Y-110853266D01*
X127952427Y-110666861D01*
X127952425Y-110666858D01*
X127791521Y-110505954D01*
X127605114Y-110375432D01*
X127605112Y-110375431D01*
X127398875Y-110279260D01*
X127345905Y-110265067D01*
X127286245Y-110228702D01*
X127255717Y-110165855D01*
X127254000Y-110145293D01*
X127254000Y-105830989D01*
X127273685Y-105763950D01*
X127326489Y-105718195D01*
X127345909Y-105711214D01*
X127358863Y-105707743D01*
X127358868Y-105707740D01*
X127358876Y-105707739D01*
X127565114Y-105611568D01*
X127751519Y-105481047D01*
X127912427Y-105320139D01*
X128042948Y-105133734D01*
X128139119Y-104927496D01*
X128198015Y-104707692D01*
X128217848Y-104481000D01*
X128213538Y-104431736D01*
X128227305Y-104363237D01*
X128275920Y-104313054D01*
X128340485Y-104296976D01*
X128991896Y-104314948D01*
G37*
G04 #@! TD.AperFunction*
G04 #@! TA.AperFunction,Conductor*
G36*
X148710148Y-100971852D02*
G01*
X148724500Y-101006500D01*
X148724500Y-136737500D01*
X148710148Y-136772148D01*
X148675500Y-136786500D01*
X141194838Y-136786500D01*
X141160190Y-136772148D01*
X141145838Y-136737500D01*
X141160190Y-136702852D01*
X141171500Y-136694415D01*
X141655035Y-136432500D01*
X146223751Y-133957778D01*
X146331932Y-133879042D01*
X146379010Y-133834127D01*
X146462748Y-133729759D01*
X146518860Y-133597271D01*
X146536675Y-133529711D01*
X146553188Y-133386785D01*
X146506668Y-131712034D01*
X146495941Y-131621559D01*
X146493085Y-131608045D01*
X146486742Y-131578024D01*
X146486737Y-131578004D01*
X146459941Y-131490915D01*
X146459940Y-131490913D01*
X146387013Y-131366887D01*
X146387012Y-131366885D01*
X146343387Y-131312310D01*
X146343384Y-131312307D01*
X146238478Y-131213858D01*
X146238477Y-131213857D01*
X146175533Y-131169784D01*
X146168990Y-131164293D01*
X146076706Y-131072009D01*
X146071215Y-131065466D01*
X145996337Y-130958527D01*
X145992067Y-130951131D01*
X145936898Y-130832823D01*
X145933977Y-130824796D01*
X145900193Y-130698712D01*
X145898712Y-130690316D01*
X145887335Y-130560261D01*
X145887335Y-130551734D01*
X145898712Y-130421680D01*
X145900193Y-130413286D01*
X145933979Y-130287194D01*
X145936895Y-130279180D01*
X145992068Y-130160862D01*
X145996337Y-130153470D01*
X146071219Y-130046525D01*
X146076700Y-130039994D01*
X146168991Y-129947703D01*
X146173636Y-129943869D01*
X146173513Y-129943711D01*
X146174518Y-129942926D01*
X146174518Y-129942925D01*
X146174525Y-129942921D01*
X146253876Y-129874024D01*
X146288888Y-129836567D01*
X146352276Y-129752759D01*
X146408388Y-129620271D01*
X146426203Y-129552711D01*
X146442716Y-129409786D01*
X146431654Y-129011522D01*
X146418757Y-128911255D01*
X146407599Y-128863187D01*
X146375010Y-128767496D01*
X146297222Y-128646457D01*
X146297221Y-128646456D01*
X146297220Y-128646454D01*
X146251467Y-128593652D01*
X146142733Y-128499433D01*
X146142730Y-128499431D01*
X146011857Y-128439662D01*
X145944821Y-128419977D01*
X145944801Y-128419974D01*
X145802401Y-128399500D01*
X145802397Y-128399500D01*
X140762500Y-128399500D01*
X140727852Y-128385148D01*
X140713500Y-128350500D01*
X140713500Y-124964993D01*
X140701948Y-124857557D01*
X140701947Y-124857544D01*
X140690741Y-124806033D01*
X140656613Y-124703496D01*
X140578825Y-124582457D01*
X140578824Y-124582456D01*
X140578823Y-124582454D01*
X140533070Y-124529652D01*
X140424336Y-124435433D01*
X140424333Y-124435431D01*
X140293460Y-124375662D01*
X140226424Y-124355977D01*
X140226404Y-124355974D01*
X140084004Y-124335500D01*
X140084000Y-124335500D01*
X131569000Y-124335500D01*
X131568994Y-124335500D01*
X131461557Y-124347051D01*
X131461534Y-124347054D01*
X131410039Y-124358257D01*
X131410019Y-124358263D01*
X131307496Y-124392387D01*
X131307492Y-124392389D01*
X131186454Y-124470176D01*
X131133652Y-124515929D01*
X131039433Y-124624663D01*
X131039431Y-124624666D01*
X130979662Y-124755539D01*
X130959977Y-124822575D01*
X130959974Y-124822595D01*
X130939500Y-124964995D01*
X130939500Y-130109412D01*
X130949667Y-130210286D01*
X130949668Y-130210293D01*
X130959541Y-130258776D01*
X130989645Y-130355624D01*
X131064188Y-130478679D01*
X131064197Y-130478692D01*
X131091566Y-130512025D01*
X131108529Y-130532685D01*
X131214723Y-130629757D01*
X136660385Y-134337441D01*
X136887077Y-134491784D01*
X136907640Y-134523146D01*
X136908500Y-134532287D01*
X136908500Y-136655006D01*
X136916806Y-136732262D01*
X136906241Y-136768246D01*
X136873325Y-136786219D01*
X136868087Y-136786500D01*
X123358500Y-136786500D01*
X123323852Y-136772148D01*
X123309500Y-136737500D01*
X123309500Y-118030940D01*
X126272499Y-118030940D01*
X126272499Y-118193000D01*
X126272500Y-118193013D01*
X126272500Y-135334060D01*
X126313422Y-135486782D01*
X126313423Y-135486786D01*
X126392475Y-135623709D01*
X126392478Y-135623713D01*
X126392480Y-135623716D01*
X126504284Y-135735520D01*
X126504287Y-135735521D01*
X126504290Y-135735524D01*
X126641213Y-135814576D01*
X126641215Y-135814576D01*
X126641216Y-135814577D01*
X126761665Y-135846851D01*
X126793939Y-135855499D01*
X126793940Y-135855500D01*
X126793943Y-135855500D01*
X131697581Y-135855500D01*
X131723002Y-135862610D01*
X132416875Y-136283691D01*
X132436722Y-136306826D01*
X132438132Y-136310230D01*
X132482447Y-136376552D01*
X132509012Y-136394301D01*
X132548769Y-136420867D01*
X132607252Y-136432500D01*
X132607255Y-136432500D01*
X134346745Y-136432500D01*
X134346748Y-136432500D01*
X134405231Y-136420867D01*
X134471552Y-136376552D01*
X134515867Y-136310231D01*
X134527500Y-136251748D01*
X134527500Y-134512252D01*
X134515867Y-134453769D01*
X134489301Y-134414012D01*
X134471552Y-134387447D01*
X134431795Y-134360882D01*
X134405231Y-134343133D01*
X134346748Y-134331500D01*
X134346745Y-134331500D01*
X132648758Y-134331500D01*
X132636447Y-134329928D01*
X132634962Y-134329542D01*
X132630484Y-134329409D01*
X132626009Y-134329277D01*
X132626008Y-134329277D01*
X132626007Y-134329277D01*
X132622142Y-134329928D01*
X132616841Y-134330820D01*
X132608709Y-134331500D01*
X132607251Y-134331500D01*
X132577377Y-134337441D01*
X132575956Y-134337702D01*
X132546930Y-134342589D01*
X132546921Y-134342591D01*
X131806076Y-134624113D01*
X131763880Y-134640148D01*
X131734522Y-134651304D01*
X131717116Y-134654500D01*
X127522500Y-134654500D01*
X127487852Y-134640148D01*
X127473500Y-134605500D01*
X127473500Y-118379030D01*
X127487851Y-118344383D01*
X129777681Y-116054552D01*
X129777686Y-116054549D01*
X129781714Y-116050520D01*
X129781716Y-116050520D01*
X129893520Y-115938716D01*
X129972577Y-115801784D01*
X129988829Y-115741129D01*
X131562500Y-115741129D01*
X131562500Y-118106864D01*
X131562501Y-118106871D01*
X131577651Y-118280051D01*
X131577652Y-118280058D01*
X131637677Y-118504071D01*
X131637679Y-118504076D01*
X131735697Y-118714280D01*
X131735704Y-118714292D01*
X131868725Y-118904263D01*
X131868731Y-118904270D01*
X132032729Y-119068268D01*
X132032736Y-119068274D01*
X132222707Y-119201295D01*
X132222719Y-119201302D01*
X132299227Y-119236977D01*
X132432921Y-119299320D01*
X132432927Y-119299321D01*
X132432928Y-119299322D01*
X132656941Y-119359347D01*
X132656945Y-119359347D01*
X132656950Y-119359349D01*
X132830129Y-119374500D01*
X138695870Y-119374499D01*
X138869050Y-119359349D01*
X138869056Y-119359347D01*
X138869058Y-119359347D01*
X138981064Y-119329334D01*
X139093079Y-119299320D01*
X139303282Y-119201301D01*
X139303283Y-119201300D01*
X139303292Y-119201295D01*
X139493263Y-119068274D01*
X139493269Y-119068270D01*
X139657270Y-118904269D01*
X139679521Y-118872490D01*
X139790295Y-118714292D01*
X139790302Y-118714280D01*
X139794806Y-118704619D01*
X139888320Y-118504079D01*
X139948349Y-118280050D01*
X139963500Y-118106871D01*
X139963500Y-117573500D01*
X139977852Y-117538852D01*
X140012500Y-117524500D01*
X140252930Y-117524500D01*
X140252946Y-117524501D01*
X140255943Y-117524501D01*
X140417055Y-117524501D01*
X140417071Y-117524500D01*
X140930930Y-117524500D01*
X140930946Y-117524501D01*
X140933943Y-117524501D01*
X141092059Y-117524501D01*
X141193875Y-117497218D01*
X141244785Y-117483577D01*
X141244786Y-117483576D01*
X141244790Y-117483575D01*
X141294892Y-117454646D01*
X141294892Y-117454645D01*
X141294904Y-117454639D01*
X141381716Y-117404520D01*
X141493520Y-117292716D01*
X141493520Y-117292714D01*
X141497549Y-117288686D01*
X141497553Y-117288681D01*
X142891051Y-115895182D01*
X142902400Y-115886725D01*
X142911785Y-115881654D01*
X143456743Y-115430263D01*
X143488000Y-115419000D01*
X143546246Y-115419000D01*
X143546256Y-115419000D01*
X143575849Y-115416225D01*
X143700475Y-115372616D01*
X143806711Y-115294211D01*
X143885116Y-115187975D01*
X143928725Y-115063349D01*
X143931500Y-115033756D01*
X143931500Y-114328244D01*
X143928725Y-114298651D01*
X143885116Y-114174025D01*
X143885114Y-114174022D01*
X143885115Y-114174022D01*
X143806711Y-114067788D01*
X143700477Y-113989385D01*
X143700475Y-113989384D01*
X143663069Y-113976294D01*
X143575851Y-113945775D01*
X143575842Y-113945774D01*
X143546267Y-113943001D01*
X143546266Y-113943000D01*
X143546256Y-113943000D01*
X142965744Y-113943000D01*
X142965734Y-113943000D01*
X142965732Y-113943001D01*
X142936157Y-113945774D01*
X142936148Y-113945775D01*
X142811522Y-113989385D01*
X142705288Y-114067788D01*
X142626885Y-114174022D01*
X142583275Y-114298648D01*
X142583274Y-114298657D01*
X142580501Y-114328232D01*
X142580500Y-114328253D01*
X142580500Y-114385272D01*
X142568944Y-114416878D01*
X142056707Y-115023738D01*
X142049800Y-115035642D01*
X142042067Y-115045696D01*
X140778617Y-116309148D01*
X140743969Y-116323500D01*
X140604032Y-116323500D01*
X140569384Y-116309148D01*
X139972479Y-115712244D01*
X139958314Y-115681868D01*
X139948349Y-115567950D01*
X139888320Y-115343921D01*
X139815602Y-115187977D01*
X139790302Y-115133719D01*
X139790295Y-115133707D01*
X139657274Y-114943736D01*
X139657268Y-114943729D01*
X139493270Y-114779731D01*
X139493263Y-114779725D01*
X139303292Y-114646704D01*
X139303280Y-114646697D01*
X139150263Y-114575345D01*
X139093079Y-114548680D01*
X139093076Y-114548679D01*
X139093071Y-114548677D01*
X138869058Y-114488652D01*
X138869052Y-114488651D01*
X138755130Y-114478684D01*
X138724753Y-114464518D01*
X138058820Y-113798585D01*
X138045551Y-113774180D01*
X138016940Y-113640306D01*
X138016935Y-113640293D01*
X138016450Y-113638620D01*
X138016572Y-113638584D01*
X138016579Y-113638582D01*
X138016887Y-113638492D01*
X138014500Y-113624938D01*
X138014500Y-112715740D01*
X138028852Y-112681092D01*
X138063500Y-112666740D01*
X138098148Y-112681092D01*
X138110830Y-112703058D01*
X138124422Y-112753784D01*
X138124423Y-112753786D01*
X138134643Y-112771486D01*
X138134645Y-112771489D01*
X138203475Y-112890709D01*
X138203482Y-112890718D01*
X138318074Y-113005310D01*
X138318080Y-113005315D01*
X138696284Y-113383519D01*
X138746402Y-113412455D01*
X138833212Y-113462575D01*
X138833218Y-113462577D01*
X138985939Y-113503500D01*
X138985942Y-113503500D01*
X139037627Y-113503500D01*
X139066723Y-113513074D01*
X139092522Y-113532114D01*
X139092525Y-113532116D01*
X139217151Y-113575725D01*
X139246744Y-113578500D01*
X139246754Y-113578500D01*
X139852246Y-113578500D01*
X139852256Y-113578500D01*
X139881849Y-113575725D01*
X140006475Y-113532116D01*
X140112711Y-113453711D01*
X140191116Y-113347475D01*
X140234725Y-113222849D01*
X140237500Y-113193256D01*
X140237500Y-112612744D01*
X140686500Y-112612744D01*
X140686500Y-113193256D01*
X140686500Y-113193266D01*
X140686501Y-113193267D01*
X140689274Y-113222842D01*
X140689275Y-113222851D01*
X140714348Y-113294503D01*
X140732884Y-113347475D01*
X140732885Y-113347477D01*
X140732884Y-113347477D01*
X140811288Y-113453711D01*
X140893225Y-113514182D01*
X140917525Y-113532116D01*
X141042151Y-113575725D01*
X141071744Y-113578500D01*
X141618480Y-113578500D01*
X141622956Y-113578705D01*
X141653882Y-113581542D01*
X141653883Y-113581542D01*
X141653883Y-113581541D01*
X141653884Y-113581542D01*
X142300063Y-113513522D01*
X142314679Y-113514181D01*
X142735432Y-113597277D01*
X142755029Y-113605920D01*
X142811525Y-113647616D01*
X142936151Y-113691225D01*
X142965744Y-113694000D01*
X142965754Y-113694000D01*
X143546246Y-113694000D01*
X143546256Y-113694000D01*
X143575849Y-113691225D01*
X143700475Y-113647616D01*
X143806711Y-113569211D01*
X143885116Y-113462975D01*
X143928725Y-113338349D01*
X143931500Y-113308756D01*
X143931500Y-112603244D01*
X143928725Y-112573651D01*
X143885116Y-112449025D01*
X143885114Y-112449022D01*
X143885115Y-112449022D01*
X143806711Y-112342788D01*
X143700477Y-112264385D01*
X143700475Y-112264384D01*
X143661126Y-112250615D01*
X143575851Y-112220775D01*
X143575842Y-112220774D01*
X143546267Y-112218001D01*
X143546266Y-112218000D01*
X143546256Y-112218000D01*
X142965744Y-112218000D01*
X142965734Y-112218000D01*
X142965732Y-112218001D01*
X142936157Y-112220774D01*
X142936145Y-112220776D01*
X142834034Y-112256506D01*
X142821437Y-112259125D01*
X142331893Y-112295046D01*
X142323178Y-112294908D01*
X141828085Y-112242794D01*
X141653881Y-112224457D01*
X141612401Y-112224300D01*
X141612400Y-112224300D01*
X141612396Y-112224300D01*
X141607718Y-112224757D01*
X141595881Y-112226792D01*
X141587583Y-112227500D01*
X141071744Y-112227500D01*
X141071734Y-112227500D01*
X141071732Y-112227501D01*
X141042157Y-112230274D01*
X141042148Y-112230275D01*
X140917522Y-112273885D01*
X140811288Y-112352288D01*
X140732885Y-112458522D01*
X140689275Y-112583148D01*
X140689275Y-112583151D01*
X140686500Y-112612744D01*
X140237500Y-112612744D01*
X140234725Y-112583151D01*
X140191116Y-112458525D01*
X140191114Y-112458522D01*
X140191115Y-112458522D01*
X140112711Y-112352288D01*
X140006477Y-112273885D01*
X140006475Y-112273884D01*
X139939977Y-112250615D01*
X139881851Y-112230275D01*
X139881842Y-112230274D01*
X139852267Y-112227501D01*
X139852266Y-112227500D01*
X139852256Y-112227500D01*
X139852246Y-112227500D01*
X139692600Y-112227500D01*
X139680308Y-112225480D01*
X139680236Y-112225795D01*
X139677893Y-112225252D01*
X139677890Y-112225251D01*
X139422728Y-112166160D01*
X139322445Y-112142937D01*
X139291928Y-112121138D01*
X139284500Y-112095200D01*
X139284500Y-111680940D01*
X139284499Y-111680939D01*
X139246457Y-111538964D01*
X139251352Y-111501782D01*
X139281105Y-111478952D01*
X139306251Y-111478895D01*
X139315081Y-111481218D01*
X139331704Y-111489177D01*
X139346525Y-111500116D01*
X139471151Y-111543725D01*
X139500744Y-111546500D01*
X139500754Y-111546500D01*
X140206246Y-111546500D01*
X140206256Y-111546500D01*
X140235849Y-111543725D01*
X140360475Y-111500116D01*
X140466711Y-111421711D01*
X140545116Y-111315475D01*
X140588725Y-111190849D01*
X140591500Y-111161256D01*
X140591500Y-110580744D01*
X140588725Y-110551151D01*
X140545116Y-110426525D01*
X140545114Y-110426522D01*
X140545115Y-110426522D01*
X140466711Y-110320288D01*
X140360477Y-110241885D01*
X140360475Y-110241884D01*
X140301933Y-110221399D01*
X140235851Y-110198275D01*
X140235842Y-110198274D01*
X140206267Y-110195501D01*
X140206266Y-110195500D01*
X140206256Y-110195500D01*
X140206246Y-110195500D01*
X139990599Y-110195500D01*
X139966099Y-110188935D01*
X139958284Y-110184423D01*
X139958281Y-110184422D01*
X139958282Y-110184422D01*
X139805560Y-110143500D01*
X139805557Y-110143500D01*
X138947647Y-110143500D01*
X138945207Y-110143439D01*
X138863511Y-110139365D01*
X138858295Y-110139171D01*
X138857755Y-110139158D01*
X138857745Y-110139159D01*
X138846767Y-110141202D01*
X138838876Y-110142672D01*
X138829909Y-110143500D01*
X138350940Y-110143500D01*
X138198217Y-110184422D01*
X138198213Y-110184423D01*
X138061290Y-110263475D01*
X138061281Y-110263482D01*
X137995629Y-110329134D01*
X137960981Y-110343486D01*
X137926333Y-110329134D01*
X137915313Y-110308513D01*
X137914814Y-110308720D01*
X137912967Y-110304262D01*
X137885718Y-110263480D01*
X137878326Y-110252417D01*
X137871011Y-110215636D01*
X137884419Y-110190550D01*
X138474125Y-109600844D01*
X138508772Y-109586493D01*
X138520202Y-109587845D01*
X138807913Y-109656888D01*
X138824427Y-109659096D01*
X138834107Y-109661412D01*
X138872151Y-109674725D01*
X138901744Y-109677500D01*
X138901754Y-109677500D01*
X139482246Y-109677500D01*
X139482256Y-109677500D01*
X139511849Y-109674725D01*
X139636475Y-109631116D01*
X139649376Y-109621594D01*
X139653426Y-109618906D01*
X139992468Y-109417415D01*
X140029582Y-109412052D01*
X140042529Y-109417415D01*
X140329308Y-109587846D01*
X140381572Y-109618906D01*
X140385623Y-109621594D01*
X140398525Y-109631116D01*
X140467593Y-109655283D01*
X140468756Y-109655709D01*
X140469484Y-109655985D01*
X140470307Y-109656233D01*
X140523151Y-109674725D01*
X140552744Y-109677500D01*
X140552754Y-109677500D01*
X141133246Y-109677500D01*
X141133256Y-109677500D01*
X141162849Y-109674725D01*
X141287475Y-109631116D01*
X141393711Y-109552711D01*
X141472116Y-109446475D01*
X141515725Y-109321849D01*
X141518500Y-109292256D01*
X141518500Y-108686744D01*
X141515725Y-108657151D01*
X141472116Y-108532525D01*
X141472114Y-108532522D01*
X141472115Y-108532522D01*
X141393711Y-108426288D01*
X141287477Y-108347885D01*
X141287475Y-108347884D01*
X141250069Y-108334794D01*
X141162851Y-108304275D01*
X141162842Y-108304274D01*
X141133267Y-108301501D01*
X141133266Y-108301500D01*
X141133256Y-108301500D01*
X140552744Y-108301500D01*
X140552734Y-108301500D01*
X140552732Y-108301501D01*
X140523157Y-108304274D01*
X140523148Y-108304275D01*
X140398527Y-108347882D01*
X140398524Y-108347884D01*
X140385645Y-108357388D01*
X140381584Y-108360083D01*
X140042531Y-108561581D01*
X140005414Y-108566945D01*
X139992467Y-108561582D01*
X139653420Y-108360089D01*
X139649361Y-108357394D01*
X139636477Y-108347885D01*
X139636475Y-108347884D01*
X139610764Y-108338887D01*
X139567423Y-108323721D01*
X139566379Y-108323343D01*
X139566127Y-108323248D01*
X139565488Y-108323043D01*
X139511854Y-108304276D01*
X139511849Y-108304275D01*
X139511846Y-108304274D01*
X139511842Y-108304274D01*
X139482267Y-108301501D01*
X139482266Y-108301500D01*
X139482256Y-108301500D01*
X138901744Y-108301500D01*
X138901734Y-108301500D01*
X138901732Y-108301501D01*
X138872157Y-108304274D01*
X138872148Y-108304275D01*
X138747522Y-108347885D01*
X138641288Y-108426288D01*
X138562883Y-108532524D01*
X138561168Y-108535770D01*
X138560709Y-108535527D01*
X138556259Y-108543670D01*
X138138124Y-109080244D01*
X138138123Y-109080246D01*
X138133646Y-109088510D01*
X138125211Y-109099816D01*
X137207489Y-110017540D01*
X137151542Y-110073486D01*
X137120542Y-110127179D01*
X137090788Y-110150009D01*
X137082918Y-110151441D01*
X137082328Y-110151499D01*
X137009260Y-110166033D01*
X136926398Y-110221398D01*
X136871033Y-110304260D01*
X136856500Y-110377322D01*
X136856500Y-110626677D01*
X136871033Y-110699739D01*
X136887763Y-110724778D01*
X136895079Y-110761560D01*
X136887763Y-110779222D01*
X136871033Y-110804260D01*
X136856500Y-110877322D01*
X136856500Y-111126677D01*
X136871033Y-111199739D01*
X136887763Y-111224778D01*
X136895079Y-111261560D01*
X136887763Y-111279222D01*
X136871033Y-111304260D01*
X136856500Y-111377322D01*
X136856500Y-111626677D01*
X136871033Y-111699739D01*
X136887763Y-111724778D01*
X136895079Y-111761560D01*
X136887763Y-111779222D01*
X136871033Y-111804260D01*
X136856500Y-111877322D01*
X136856500Y-112022014D01*
X136854830Y-112034696D01*
X136813500Y-112188939D01*
X136813500Y-113548881D01*
X136799148Y-113583529D01*
X136795420Y-113586894D01*
X135718928Y-114462513D01*
X135688008Y-114473500D01*
X132830135Y-114473500D01*
X132830128Y-114473501D01*
X132656948Y-114488651D01*
X132656941Y-114488652D01*
X132432928Y-114548677D01*
X132432923Y-114548679D01*
X132222719Y-114646697D01*
X132222707Y-114646704D01*
X132032736Y-114779725D01*
X132032729Y-114779731D01*
X131868731Y-114943729D01*
X131868725Y-114943736D01*
X131735704Y-115133707D01*
X131735697Y-115133719D01*
X131637679Y-115343923D01*
X131637677Y-115343928D01*
X131577652Y-115567941D01*
X131577651Y-115567947D01*
X131562500Y-115741129D01*
X129988829Y-115741129D01*
X130013499Y-115649060D01*
X130013500Y-115649060D01*
X130013500Y-112761452D01*
X130014543Y-112751396D01*
X130020228Y-112724287D01*
X130057729Y-112545444D01*
X130078886Y-112514479D01*
X130105686Y-112506500D01*
X130272125Y-112506500D01*
X130272128Y-112506500D01*
X130330611Y-112494867D01*
X130396932Y-112450552D01*
X130430847Y-112399795D01*
X130462028Y-112378961D01*
X130469489Y-112378065D01*
X133998853Y-112227443D01*
X134030038Y-112236972D01*
X134048525Y-112250616D01*
X134127412Y-112278220D01*
X134172776Y-112294094D01*
X134173151Y-112294225D01*
X134202744Y-112297000D01*
X134202754Y-112297000D01*
X134783246Y-112297000D01*
X134783256Y-112297000D01*
X134812849Y-112294225D01*
X134937475Y-112250616D01*
X135016362Y-112192394D01*
X135043363Y-112182866D01*
X135066208Y-112181892D01*
X135066301Y-112181887D01*
X135066333Y-112181886D01*
X135073356Y-112181536D01*
X135073384Y-112181534D01*
X135073432Y-112181532D01*
X135076992Y-112181329D01*
X135084277Y-112180861D01*
X135224869Y-112150277D01*
X135289548Y-112126152D01*
X135290146Y-112125941D01*
X135290324Y-112125863D01*
X135290333Y-112125860D01*
X135290336Y-112125859D01*
X135416616Y-112056903D01*
X135518354Y-111955164D01*
X135560225Y-111899230D01*
X135571807Y-111878016D01*
X135601009Y-111854485D01*
X135614814Y-111852500D01*
X136221674Y-111852500D01*
X136294740Y-111837966D01*
X136377601Y-111782601D01*
X136432966Y-111699740D01*
X136447500Y-111626674D01*
X136447500Y-111377326D01*
X136432966Y-111304260D01*
X136416235Y-111279221D01*
X136408919Y-111242441D01*
X136416236Y-111224778D01*
X136432966Y-111199740D01*
X136447500Y-111126674D01*
X136447500Y-110877326D01*
X136432966Y-110804260D01*
X136416235Y-110779221D01*
X136408919Y-110742441D01*
X136416236Y-110724778D01*
X136432966Y-110699740D01*
X136447500Y-110626674D01*
X136447500Y-110377326D01*
X136432966Y-110304260D01*
X136377601Y-110221398D01*
X136294739Y-110166033D01*
X136251940Y-110157519D01*
X136220757Y-110136683D01*
X136212500Y-110109461D01*
X136212500Y-108587881D01*
X136215031Y-108572338D01*
X136226741Y-108537329D01*
X136412127Y-107983088D01*
X136418926Y-107950604D01*
X136420626Y-107944494D01*
X136435725Y-107901349D01*
X136438500Y-107871756D01*
X136438500Y-107266244D01*
X136435725Y-107236651D01*
X136392116Y-107112025D01*
X136392114Y-107112022D01*
X136392115Y-107112022D01*
X136313711Y-107005788D01*
X136207477Y-106927385D01*
X136207475Y-106927384D01*
X136205243Y-106926603D01*
X138513300Y-106926603D01*
X138513377Y-106927385D01*
X138513756Y-106931269D01*
X138513757Y-106931274D01*
X138515792Y-106943112D01*
X138516500Y-106951413D01*
X138516500Y-107467246D01*
X138516501Y-107467267D01*
X138519274Y-107496842D01*
X138519275Y-107496851D01*
X138549794Y-107584069D01*
X138562884Y-107621475D01*
X138562885Y-107621477D01*
X138562884Y-107621477D01*
X138641288Y-107727711D01*
X138747522Y-107806114D01*
X138747525Y-107806116D01*
X138872151Y-107849725D01*
X138901744Y-107852500D01*
X138901754Y-107852500D01*
X139482246Y-107852500D01*
X139482256Y-107852500D01*
X139511849Y-107849725D01*
X139636475Y-107806116D01*
X139742711Y-107727711D01*
X139821116Y-107621475D01*
X139864725Y-107496849D01*
X139867500Y-107467256D01*
X139867500Y-106920519D01*
X139867705Y-106916043D01*
X139870542Y-106885116D01*
X139870542Y-106885115D01*
X139869767Y-106877755D01*
X139797474Y-106190962D01*
X139797472Y-106190954D01*
X139794342Y-106179862D01*
X139792500Y-106166554D01*
X139792500Y-105584940D01*
X139792499Y-105584939D01*
X139751577Y-105432217D01*
X139751576Y-105432213D01*
X139672524Y-105295290D01*
X139672521Y-105295287D01*
X139672520Y-105295284D01*
X139560716Y-105183480D01*
X139560713Y-105183478D01*
X139560709Y-105183475D01*
X139423786Y-105104423D01*
X139423782Y-105104422D01*
X139271060Y-105063500D01*
X139271057Y-105063500D01*
X139112943Y-105063500D01*
X139112940Y-105063500D01*
X138960217Y-105104422D01*
X138960213Y-105104423D01*
X138823290Y-105183475D01*
X138823281Y-105183482D01*
X138711482Y-105295281D01*
X138711475Y-105295290D01*
X138632423Y-105432213D01*
X138632422Y-105432217D01*
X138591500Y-105584939D01*
X138591500Y-106167515D01*
X138589293Y-106182055D01*
X138586526Y-106190959D01*
X138586526Y-106190961D01*
X138513457Y-106885118D01*
X138513332Y-106918278D01*
X138513300Y-106926603D01*
X136205243Y-106926603D01*
X136170069Y-106914294D01*
X136082851Y-106883775D01*
X136082842Y-106883774D01*
X136053267Y-106881001D01*
X136053266Y-106881000D01*
X136053256Y-106881000D01*
X135472744Y-106881000D01*
X135472734Y-106881000D01*
X135472732Y-106881001D01*
X135443157Y-106883774D01*
X135443148Y-106883775D01*
X135318522Y-106927385D01*
X135212288Y-107005788D01*
X135133885Y-107112022D01*
X135090275Y-107236648D01*
X135090274Y-107236657D01*
X135087501Y-107266232D01*
X135087500Y-107266253D01*
X135087500Y-107871746D01*
X135087501Y-107871767D01*
X135090274Y-107901342D01*
X135090275Y-107901351D01*
X135133883Y-108025973D01*
X135133884Y-108025975D01*
X135199769Y-108115247D01*
X135203360Y-108120882D01*
X135206520Y-108126678D01*
X135206522Y-108126680D01*
X135528982Y-108513092D01*
X135528986Y-108513095D01*
X135600121Y-108598336D01*
X135611500Y-108629731D01*
X135611500Y-110109461D01*
X135597148Y-110144109D01*
X135572060Y-110157519D01*
X135529260Y-110166033D01*
X135446398Y-110221398D01*
X135391033Y-110304260D01*
X135383897Y-110340133D01*
X135363061Y-110371315D01*
X135326278Y-110378630D01*
X135301191Y-110365220D01*
X134426852Y-109490881D01*
X134412500Y-109456233D01*
X134412500Y-108608076D01*
X134419007Y-108583677D01*
X134431694Y-108561581D01*
X134731232Y-108039905D01*
X134734285Y-108035230D01*
X134741116Y-108025975D01*
X134756204Y-107982852D01*
X134756478Y-107982094D01*
X134765594Y-107957521D01*
X134765595Y-107957512D01*
X134766109Y-107955674D01*
X134767420Y-107950800D01*
X134784725Y-107901349D01*
X134787500Y-107871756D01*
X134787500Y-107266244D01*
X134784725Y-107236651D01*
X134741116Y-107112025D01*
X134741114Y-107112022D01*
X134741115Y-107112022D01*
X134662711Y-107005788D01*
X134556477Y-106927385D01*
X134556475Y-106927384D01*
X134519069Y-106914294D01*
X134431851Y-106883775D01*
X134431842Y-106883774D01*
X134402267Y-106881001D01*
X134402266Y-106881000D01*
X134402256Y-106881000D01*
X134402246Y-106881000D01*
X134356398Y-106881000D01*
X134338863Y-106877755D01*
X133549043Y-106575066D01*
X133531930Y-106563959D01*
X133365431Y-106397460D01*
X133352624Y-106375016D01*
X133138179Y-105541020D01*
X133138060Y-105540557D01*
X133138156Y-105540532D01*
X133136500Y-105528297D01*
X133136500Y-105441253D01*
X133136500Y-105441244D01*
X133133725Y-105411651D01*
X133090116Y-105287025D01*
X133090114Y-105287022D01*
X133090115Y-105287022D01*
X133011711Y-105180788D01*
X132905477Y-105102385D01*
X132905475Y-105102384D01*
X132868069Y-105089294D01*
X132780851Y-105058775D01*
X132780842Y-105058774D01*
X132751267Y-105056001D01*
X132751266Y-105056000D01*
X132751256Y-105056000D01*
X132170744Y-105056000D01*
X132170734Y-105056000D01*
X132170732Y-105056001D01*
X132141157Y-105058774D01*
X132141148Y-105058775D01*
X132016522Y-105102385D01*
X131910288Y-105180788D01*
X131831885Y-105287022D01*
X131788275Y-105411648D01*
X131788274Y-105411657D01*
X131785501Y-105441232D01*
X131785500Y-105441253D01*
X131785500Y-105581632D01*
X131771148Y-105616280D01*
X131736500Y-105630632D01*
X131707867Y-105621395D01*
X131006184Y-105116117D01*
X130992337Y-105100777D01*
X130419400Y-104104259D01*
X130412880Y-104079836D01*
X130412880Y-103661255D01*
X130412880Y-103661252D01*
X130401247Y-103602769D01*
X130374681Y-103563012D01*
X130356932Y-103536447D01*
X130317175Y-103509882D01*
X130290611Y-103492133D01*
X130232128Y-103480500D01*
X128592632Y-103480500D01*
X128534149Y-103492133D01*
X128467827Y-103536447D01*
X128423513Y-103602769D01*
X128411880Y-103661252D01*
X128411880Y-103661255D01*
X128411880Y-103742882D01*
X128397528Y-103777530D01*
X128362880Y-103791882D01*
X128361534Y-103791863D01*
X128354430Y-103791667D01*
X128354423Y-103791667D01*
X128218336Y-103806456D01*
X128153773Y-103822533D01*
X128026650Y-103873288D01*
X128026648Y-103873289D01*
X127912850Y-103961329D01*
X127864237Y-104011510D01*
X127864235Y-104011512D01*
X127779850Y-104128046D01*
X127731715Y-104263629D01*
X127731711Y-104263644D01*
X127717948Y-104332122D01*
X127717895Y-104332660D01*
X127717872Y-104333501D01*
X127709961Y-104475778D01*
X127709962Y-104475805D01*
X127710044Y-104476743D01*
X127710043Y-104485263D01*
X127698666Y-104615307D01*
X127697182Y-104623719D01*
X127663398Y-104749802D01*
X127660477Y-104757828D01*
X127605311Y-104876134D01*
X127601040Y-104883531D01*
X127526167Y-104990460D01*
X127520677Y-104997003D01*
X127428383Y-105089297D01*
X127421840Y-105094787D01*
X127314911Y-105169660D01*
X127307514Y-105173931D01*
X127179273Y-105233729D01*
X127175143Y-105235430D01*
X127155493Y-105242494D01*
X127116495Y-105258376D01*
X126995454Y-105336165D01*
X126942652Y-105381918D01*
X126848433Y-105490652D01*
X126848431Y-105490655D01*
X126788662Y-105621528D01*
X126768977Y-105688564D01*
X126768974Y-105688584D01*
X126748500Y-105830984D01*
X126748500Y-105830989D01*
X126748500Y-110145293D01*
X126748759Y-110151499D01*
X126750253Y-110187369D01*
X126751969Y-110207918D01*
X126757215Y-110249674D01*
X126801021Y-110386722D01*
X126801025Y-110386732D01*
X126831537Y-110449547D01*
X126831545Y-110449560D01*
X126831550Y-110449571D01*
X126831553Y-110449576D01*
X126912198Y-110568730D01*
X127023147Y-110660338D01*
X127082807Y-110696703D01*
X127082811Y-110696705D01*
X127215074Y-110753343D01*
X127221184Y-110754979D01*
X127229201Y-110757898D01*
X127347514Y-110813068D01*
X127354904Y-110817334D01*
X127461845Y-110892214D01*
X127468388Y-110897705D01*
X127560674Y-110989991D01*
X127566164Y-110996534D01*
X127641042Y-111103471D01*
X127645309Y-111110860D01*
X127668804Y-111161246D01*
X127700477Y-111229170D01*
X127703398Y-111237196D01*
X127737182Y-111363279D01*
X127738666Y-111371690D01*
X127750043Y-111501728D01*
X127750043Y-111510270D01*
X127738666Y-111640308D01*
X127737182Y-111648719D01*
X127703398Y-111774802D01*
X127700477Y-111782828D01*
X127645311Y-111901134D01*
X127641040Y-111908531D01*
X127566167Y-112015460D01*
X127560677Y-112022003D01*
X127468383Y-112114297D01*
X127461840Y-112119787D01*
X127354911Y-112194660D01*
X127347514Y-112198931D01*
X127229211Y-112254096D01*
X127221192Y-112257015D01*
X127215079Y-112258653D01*
X127174887Y-112271239D01*
X127157945Y-112277330D01*
X127155472Y-112278220D01*
X127139354Y-112284784D01*
X127116492Y-112294095D01*
X126995454Y-112371883D01*
X126942652Y-112417636D01*
X126848433Y-112526370D01*
X126848431Y-112526373D01*
X126788662Y-112657246D01*
X126768977Y-112724282D01*
X126768974Y-112724302D01*
X126748500Y-112866702D01*
X126748500Y-113033006D01*
X126760051Y-113140442D01*
X126760054Y-113140465D01*
X126771257Y-113191960D01*
X126771263Y-113191980D01*
X126805387Y-113294503D01*
X126805389Y-113294507D01*
X126883176Y-113415545D01*
X126928929Y-113468347D01*
X127037663Y-113562566D01*
X127037666Y-113562568D01*
X127073000Y-113578705D01*
X127168541Y-113622338D01*
X127199947Y-113631560D01*
X127235575Y-113642022D01*
X127235578Y-113642022D01*
X127235580Y-113642023D01*
X127235584Y-113642024D01*
X127378000Y-113662500D01*
X128763500Y-113662500D01*
X128798148Y-113676852D01*
X128812500Y-113711500D01*
X128812500Y-115300968D01*
X128798148Y-115335616D01*
X126392481Y-117741283D01*
X126392480Y-117741283D01*
X126342360Y-117828095D01*
X126313423Y-117878212D01*
X126313421Y-117878218D01*
X126272499Y-118030940D01*
X123309500Y-118030940D01*
X123309500Y-101006500D01*
X123323852Y-100971852D01*
X123358500Y-100957500D01*
X148675500Y-100957500D01*
X148710148Y-100971852D01*
G37*
G04 #@! TD.AperFunction*
G04 #@! TA.AperFunction,Conductor*
G36*
X142326525Y-112501897D02*
G01*
X142334394Y-112506171D01*
X142337000Y-112513533D01*
X142337000Y-113292466D01*
X142333573Y-113300739D01*
X142326525Y-113304102D01*
X141632371Y-113377171D01*
X141623784Y-113374629D01*
X141620802Y-113371002D01*
X141376387Y-112908465D01*
X141375553Y-112899551D01*
X141376388Y-112897534D01*
X141620802Y-112434996D01*
X141627697Y-112429284D01*
X141632368Y-112428828D01*
X142326525Y-112501897D01*
G37*
G04 #@! TD.AperFunction*
G04 #@! TA.AperFunction,Conductor*
G36*
X142894674Y-112463242D02*
G01*
X142896457Y-112465172D01*
X142924244Y-112503000D01*
X143251296Y-112948235D01*
X143253432Y-112956930D01*
X143250473Y-112963086D01*
X142844695Y-113403688D01*
X142836570Y-113407452D01*
X142833822Y-113407240D01*
X142315433Y-113304862D01*
X142307981Y-113299897D01*
X142306000Y-113293384D01*
X142306000Y-112513873D01*
X142309427Y-112505600D01*
X142316843Y-112502204D01*
X142886173Y-112460429D01*
X142894674Y-112463242D01*
G37*
G04 #@! TD.AperFunction*
G04 #@! TA.AperFunction,Conductor*
G36*
X137399892Y-112009226D02*
G01*
X137399925Y-112009255D01*
X137400700Y-112009971D01*
X137543581Y-112141774D01*
X137547338Y-112149903D01*
X137544248Y-112158307D01*
X137542006Y-112160195D01*
X137484712Y-112197286D01*
X137354960Y-112327038D01*
X137346687Y-112330465D01*
X137338414Y-112327038D01*
X137336141Y-112323832D01*
X137314276Y-112278324D01*
X137257003Y-112159122D01*
X137256510Y-112150183D01*
X137258911Y-112146167D01*
X137383363Y-112009970D01*
X137391473Y-112006175D01*
X137399892Y-112009226D01*
G37*
G04 #@! TD.AperFunction*
G04 #@! TA.AperFunction,Conductor*
G36*
X142788889Y-114487499D02*
G01*
X143251234Y-114678037D01*
X143257577Y-114684357D01*
X143258132Y-114686036D01*
X143388481Y-115211363D01*
X143387147Y-115220218D01*
X143384588Y-115223191D01*
X142780698Y-115723394D01*
X142772141Y-115726033D01*
X142764962Y-115722657D01*
X142214413Y-115172108D01*
X142210986Y-115163835D01*
X142213744Y-115156289D01*
X142775495Y-114490769D01*
X142783449Y-114486659D01*
X142788889Y-114487499D01*
G37*
G04 #@! TD.AperFunction*
G04 #@! TA.AperFunction,Conductor*
G36*
X137812809Y-113677427D02*
G01*
X137815978Y-113683255D01*
X138026385Y-114667757D01*
X138024763Y-114676563D01*
X138023191Y-114678500D01*
X135783220Y-116904902D01*
X135774936Y-116908304D01*
X135766674Y-116904852D01*
X135763272Y-116896569D01*
X135784540Y-114679496D01*
X135788046Y-114671257D01*
X135788850Y-114670537D01*
X137010775Y-113676622D01*
X137018158Y-113674000D01*
X137804536Y-113674000D01*
X137812809Y-113677427D01*
G37*
G04 #@! TD.AperFunction*
G04 #@! TA.AperFunction,Conductor*
G36*
X138853270Y-110344611D02*
G01*
X139872312Y-110395410D01*
X139880404Y-110399244D01*
X139883414Y-110407678D01*
X139883406Y-110407824D01*
X139854784Y-110866437D01*
X139851198Y-110874160D01*
X139417031Y-111289773D01*
X139408685Y-111293018D01*
X139405963Y-111292636D01*
X138849723Y-111146294D01*
X138842594Y-111140875D01*
X138841000Y-111134979D01*
X138841000Y-110356297D01*
X138844427Y-110348024D01*
X138852700Y-110344597D01*
X138853270Y-110344611D01*
G37*
G04 #@! TD.AperFunction*
G04 #@! TA.AperFunction,Conductor*
G36*
X137868195Y-110899751D02*
G01*
X137875363Y-110905118D01*
X137877000Y-110911087D01*
X137877000Y-111092912D01*
X137873573Y-111101185D01*
X137868195Y-111104248D01*
X137700250Y-111147142D01*
X137692300Y-111146357D01*
X137649966Y-111126074D01*
X137413020Y-111012550D01*
X137407040Y-111005886D01*
X137407525Y-110996945D01*
X137413020Y-110991449D01*
X137692302Y-110857641D01*
X137700249Y-110856857D01*
X137868195Y-110899751D01*
G37*
G04 #@! TD.AperFunction*
G04 #@! TA.AperFunction,Conductor*
G36*
X139589740Y-106205427D02*
G01*
X139593103Y-106212475D01*
X139666171Y-106906628D01*
X139663629Y-106915215D01*
X139660001Y-106918198D01*
X139197466Y-107162611D01*
X139188551Y-107163446D01*
X139186534Y-107162611D01*
X138723998Y-106918198D01*
X138718284Y-106911302D01*
X138717828Y-106906631D01*
X138790897Y-106212474D01*
X138795171Y-106204606D01*
X138802533Y-106202000D01*
X139581467Y-106202000D01*
X139589740Y-106205427D01*
G37*
G04 #@! TD.AperFunction*
G04 #@! TA.AperFunction,Conductor*
G36*
X137369341Y-110157045D02*
G01*
X137372482Y-110159286D01*
X137502308Y-110289112D01*
X137555445Y-110343141D01*
X137558803Y-110351442D01*
X137555307Y-110359687D01*
X137554792Y-110360164D01*
X137400154Y-110494981D01*
X137391666Y-110497835D01*
X137383646Y-110493851D01*
X137383610Y-110493809D01*
X137334508Y-110436945D01*
X137266201Y-110357840D01*
X137263388Y-110349340D01*
X137264541Y-110345068D01*
X137353695Y-110162426D01*
X137360403Y-110156495D01*
X137369341Y-110157045D01*
G37*
G04 #@! TD.AperFunction*
G04 #@! TA.AperFunction,Conductor*
G36*
X140520843Y-108528958D02*
G01*
X140839284Y-108982780D01*
X140841231Y-108991520D01*
X140839284Y-108996220D01*
X140520843Y-109450041D01*
X140513286Y-109454845D01*
X140505289Y-109453379D01*
X139898723Y-109092901D01*
X139893361Y-109085728D01*
X139893000Y-109082843D01*
X139893000Y-108896156D01*
X139896427Y-108887883D01*
X139898718Y-108886101D01*
X140505289Y-108525619D01*
X140514151Y-108524339D01*
X140520843Y-108528958D01*
G37*
G04 #@! TD.AperFunction*
G04 #@! TA.AperFunction,Conductor*
G36*
X139529710Y-108525620D02*
G01*
X139535327Y-108528958D01*
X140136278Y-108886099D01*
X140141639Y-108893271D01*
X140142000Y-108896156D01*
X140142000Y-109082843D01*
X140138573Y-109091116D01*
X140136277Y-109092901D01*
X139529710Y-109453379D01*
X139520848Y-109454660D01*
X139514156Y-109450041D01*
X139263555Y-109092901D01*
X139195714Y-108996219D01*
X139193768Y-108987480D01*
X139195715Y-108982780D01*
X139256498Y-108896156D01*
X139514157Y-108528957D01*
X139521713Y-108524154D01*
X139529710Y-108525620D01*
G37*
G04 #@! TD.AperFunction*
G04 #@! TA.AperFunction,Conductor*
G36*
X138744657Y-108654859D02*
G01*
X138747595Y-108657049D01*
X139183600Y-108982006D01*
X139188185Y-108989698D01*
X139186193Y-108998097D01*
X138868181Y-109452394D01*
X138860629Y-109457206D01*
X138855866Y-109457061D01*
X138438496Y-109356904D01*
X138432953Y-109353800D01*
X138301176Y-109222023D01*
X138297749Y-109213750D01*
X138300219Y-109206560D01*
X138728438Y-108657048D01*
X138736226Y-108652630D01*
X138744657Y-108654859D01*
G37*
G04 #@! TD.AperFunction*
G04 #@! TA.AperFunction,Conductor*
G36*
X136011840Y-110205427D02*
G01*
X136014667Y-110210000D01*
X136059721Y-110345165D01*
X136059086Y-110354097D01*
X136056922Y-110357111D01*
X135920301Y-110494643D01*
X135912039Y-110498097D01*
X135903754Y-110494698D01*
X135903699Y-110494643D01*
X135767077Y-110357111D01*
X135763678Y-110348826D01*
X135764278Y-110345165D01*
X135809333Y-110210000D01*
X135815201Y-110203235D01*
X135820433Y-110202000D01*
X136003567Y-110202000D01*
X136011840Y-110205427D01*
G37*
G04 #@! TD.AperFunction*
G04 #@! TA.AperFunction,Conductor*
G36*
X135771250Y-107574173D02*
G01*
X136213153Y-107904823D01*
X136217725Y-107912522D01*
X136217240Y-107917901D01*
X136014672Y-108523511D01*
X136008798Y-108530270D01*
X136003576Y-108531500D01*
X135817475Y-108531500D01*
X135809202Y-108528073D01*
X135808492Y-108527296D01*
X135679781Y-108373060D01*
X135364299Y-107995011D01*
X135361630Y-107986466D01*
X135364873Y-107979382D01*
X135755835Y-107575402D01*
X135764049Y-107571843D01*
X135771250Y-107574173D01*
G37*
G04 #@! TD.AperFunction*
G04 #@! TA.AperFunction,Conductor*
G36*
X134119007Y-107573243D02*
G01*
X134441680Y-107814680D01*
X134560624Y-107903679D01*
X134565196Y-107911379D01*
X134563761Y-107918873D01*
X134215373Y-108525626D01*
X134208282Y-108531094D01*
X134205227Y-108531500D01*
X134018773Y-108531500D01*
X134010500Y-108528073D01*
X134008627Y-108525626D01*
X133660237Y-107918871D01*
X133659090Y-107909992D01*
X133663374Y-107903680D01*
X134104991Y-107573243D01*
X134113668Y-107571031D01*
X134119007Y-107573243D01*
G37*
G04 #@! TD.AperFunction*
G04 #@! TA.AperFunction,Conductor*
G36*
X132932960Y-105584598D02*
G01*
X132938888Y-105591310D01*
X132939153Y-105592196D01*
X133166814Y-106477589D01*
X133165556Y-106486455D01*
X133163756Y-106488776D01*
X133033021Y-106619511D01*
X133024748Y-106622938D01*
X133019512Y-106621701D01*
X132249832Y-106236532D01*
X132243967Y-106229765D01*
X132244405Y-106221253D01*
X132458212Y-105747898D01*
X132464740Y-105741771D01*
X132465012Y-105741672D01*
X132924022Y-105584044D01*
X132932960Y-105584598D01*
G37*
G04 #@! TD.AperFunction*
G04 #@! TA.AperFunction,Conductor*
G36*
X133443479Y-106754685D02*
G01*
X134285396Y-107077339D01*
X134291894Y-107083499D01*
X134292160Y-107092381D01*
X134114497Y-107564945D01*
X134108378Y-107571483D01*
X134108003Y-107571645D01*
X133648006Y-107761215D01*
X133639051Y-107761199D01*
X133632731Y-107754856D01*
X133632655Y-107754669D01*
X133297764Y-106900518D01*
X133297935Y-106891565D01*
X133300381Y-106887977D01*
X133431021Y-106757337D01*
X133439293Y-106753911D01*
X133443479Y-106754685D01*
G37*
G04 #@! TD.AperFunction*
G04 #@! TA.AperFunction,Conductor*
G36*
X135630548Y-110853871D02*
G01*
X135888036Y-110989693D01*
X135893754Y-110996584D01*
X135892926Y-111005501D01*
X135886135Y-111011188D01*
X135582977Y-111107951D01*
X135574229Y-111107291D01*
X135396090Y-111019129D01*
X135390196Y-111012388D01*
X135390794Y-111003453D01*
X135393004Y-111000373D01*
X135520297Y-110873080D01*
X135526520Y-110869836D01*
X135623048Y-110852701D01*
X135630548Y-110853871D01*
G37*
G04 #@! TD.AperFunction*
G04 #@! TA.AperFunction,Conductor*
G36*
X137868195Y-111399751D02*
G01*
X137875363Y-111405118D01*
X137877000Y-111411087D01*
X137877000Y-111592912D01*
X137873573Y-111601185D01*
X137868195Y-111604248D01*
X137700250Y-111647142D01*
X137692300Y-111646357D01*
X137649966Y-111626074D01*
X137413020Y-111512550D01*
X137407040Y-111505886D01*
X137407525Y-111496945D01*
X137413020Y-111491449D01*
X137692302Y-111357641D01*
X137700249Y-111356857D01*
X137868195Y-111399751D01*
G37*
G04 #@! TD.AperFunction*
G04 #@! TA.AperFunction,Conductor*
G36*
X139015287Y-112282745D02*
G01*
X139631528Y-112425453D01*
X139638814Y-112430658D01*
X139640374Y-112439080D01*
X139551128Y-112898958D01*
X139546200Y-112906418D01*
X139084559Y-113218886D01*
X139075787Y-113220686D01*
X139072040Y-113219265D01*
X138456254Y-112854647D01*
X138450881Y-112847483D01*
X138452147Y-112838618D01*
X138453938Y-112836310D01*
X139004378Y-112285870D01*
X139012650Y-112282444D01*
X139015287Y-112282745D01*
G37*
G04 #@! TD.AperFunction*
G04 #@! TA.AperFunction,Conductor*
G36*
X129420648Y-104488279D02*
G01*
X129420714Y-104488344D01*
X130212380Y-105281000D01*
X129852380Y-106081000D01*
X129052380Y-106081000D01*
X128632143Y-105281000D01*
X129404105Y-104488495D01*
X129412330Y-104484961D01*
X129420648Y-104488279D01*
G37*
G04 #@! TD.AperFunction*
G04 #@! TA.AperFunction,Conductor*
G36*
X130211885Y-104160378D02*
G01*
X130217460Y-104165317D01*
X131017061Y-105556073D01*
X131018214Y-105564954D01*
X131015191Y-105570178D01*
X130913250Y-105672117D01*
X130913251Y-105672117D01*
X130913251Y-105672118D01*
X130455842Y-106129528D01*
X129074117Y-105281000D01*
X129409785Y-104484770D01*
X129416154Y-104478480D01*
X130202931Y-104160302D01*
X130211885Y-104160378D01*
G37*
G04 #@! TD.AperFunction*
G04 #@! TA.AperFunction,Conductor*
G36*
X132628879Y-134534952D02*
G01*
X132632352Y-134537346D01*
X133469396Y-135373406D01*
X133472828Y-135381677D01*
X133469406Y-135389952D01*
X133469082Y-135390265D01*
X132633475Y-136164825D01*
X132625078Y-136167936D01*
X132619451Y-136166246D01*
X131782630Y-135658416D01*
X131777335Y-135651195D01*
X131777000Y-135648414D01*
X131777000Y-134863070D01*
X131780427Y-134854797D01*
X131784542Y-134852133D01*
X132619928Y-134534687D01*
X132628879Y-134534952D01*
G37*
G04 #@! TD.AperFunction*
M02*
